<svg xmlns="http://www.w3.org/2000/svg" width="24.327" height="26.228" viewBox="0 0 24.327 26.228">
  <g id="Group_383" data-name="Group 383" transform="translate(0.15 0.15)">
    <path id="Path_143" data-name="Path 143" d="M55,53.457a7.226,7.226,0,1,1,7.248-7.226A7.245,7.245,0,0,1,55,53.457ZM55,40a6.227,6.227,0,1,0,6.246,6.227A6.243,6.243,0,0,0,55,40Z" transform="translate(-42.991 -39.005)" stroke="#000" stroke-width="0.3"/>
    <path id="Path_144" data-name="Path 144" d="M63.78,72.725a.5.5,0,0,1-.5-.5,11.011,11.011,0,0,0-22.022,0,.5.5,0,0,1-1,0,12.014,12.014,0,0,1,24.027,0A.5.5,0,0,1,63.78,72.725Z" transform="translate(-40.254 -46.797)" stroke="#000" stroke-width="0.3"/>
  </g>
</svg>
