<svg id="Group_8969" data-name="Group 8969" xmlns="http://www.w3.org/2000/svg" width="20.527" height="31.811" viewBox="0 0 20.527 31.811">
  <g id="Group_4544" data-name="Group 4544" transform="translate(0 0)">
    <path id="Path_125" data-name="Path 125" d="M1023.408,106.249h1.345a9.6,9.6,0,0,0,9.591-9.591V84.029a9.6,9.6,0,0,0-9.591-9.591h-1.345a9.6,9.6,0,0,0-9.591,9.591V96.658A9.6,9.6,0,0,0,1023.408,106.249Zm9.318-9.591a7.955,7.955,0,0,1-.352,2.346l-7.333-3.562,7.685-3.573Zm-9.318-20.6h1.345a7.981,7.981,0,0,1,7.968,7.771,2.335,2.335,0,0,0-1.93-1.022l-.087,0a6.787,6.787,0,0,0-13.243,0l-.087,0a2.336,2.336,0,0,0-1.933,1.025A7.981,7.981,0,0,1,1023.408,76.056Zm8.748,9.085a1.365,1.365,0,0,1-2.488.775,5.815,5.815,0,0,1-11.173,0,1.37,1.37,0,1,1-.224-1.8,5.813,5.813,0,0,1,11.621,0,1.36,1.36,0,0,1,2.264,1.021Zm-16.721,1.3a2.333,2.333,0,0,0,2.6.936,6.783,6.783,0,0,0,12.091,0,2.333,2.333,0,0,0,2.6-.932V90.8l-8.81,4.1-8.48-4.12Zm0,5.409,8.392,4.077.029.062.05-.023,8.122,3.945a8.024,8.024,0,0,1-2.732,3.291l-13.86-6.73Zm12.859,11.945a7.924,7.924,0,0,1-3.542.832h-1.345a7.984,7.984,0,0,1-7.918-7.05Z" transform="translate(-1013.817 -74.438)" fill="#c5c5c5"/>
    <path id="Path_126" data-name="Path 126" d="M1038.875,106.222a2.3,2.3,0,0,0,2.177-2.406H1036.7A2.3,2.3,0,0,0,1038.875,106.222Zm0-1.706a.95.95,0,0,1,.9.994h-1.8A.95.95,0,0,1,1038.875,104.516Z" transform="translate(-1028.611 -93.432)" fill="#c5c5c5"/>
    <path id="Path_127" data-name="Path 127" d="M1032.62,98.32a.659.659,0,1,0,.659.659A.659.659,0,0,0,1032.62,98.32Z" transform="translate(-1025.548 -89.879)" fill="#c5c5c5"/>
    <path id="Path_128" data-name="Path 128" d="M1050.683,98.32a.659.659,0,1,0,.659.659A.659.659,0,0,0,1050.683,98.32Z" transform="translate(-1037.227 -89.879)" fill="#c5c5c5"/>
  </g>
</svg>
