<svg xmlns="http://www.w3.org/2000/svg" width="21.578" height="23.978" viewBox="0 0 21.578 23.978">
  <g id="Group_4116" data-name="Group 4116" transform="translate(-25.627)">
    <path id="Path_97" data-name="Path 97" d="M42.739,11.776h1.673a.687.687,0,0,0,.686-.686V9.418a.687.687,0,0,0-.686-.686H42.739a.687.687,0,0,0-.686.686v1.673A.687.687,0,0,0,42.739,11.776Zm.017-2.342H44.4v1.639H42.756Zm-.017,6.791h1.673a.687.687,0,0,0,.686-.686V13.867a.687.687,0,0,0-.686-.686H42.739a.687.687,0,0,0-.686.686V15.54A.687.687,0,0,0,42.739,16.225Zm.017-2.342H44.4v1.639H42.756Zm-4.79-2.107h1.673a.687.687,0,0,0,.686-.686V9.418a.687.687,0,0,0-.686-.686H37.966a.687.687,0,0,0-.686.686v1.673A.687.687,0,0,0,37.966,11.776Zm.017-2.342h1.639v1.639H37.983Zm-7.89,7.987H28.42a.687.687,0,0,0-.686.686V19.78a.687.687,0,0,0,.686.686h1.673a.687.687,0,0,0,.686-.686V18.108A.687.687,0,0,0,30.093,17.422Zm-.017,2.342H28.437V18.124h1.639Zm.017-11.031H28.42a.687.687,0,0,0-.686.686v1.673a.687.687,0,0,0,.686.686h1.673a.687.687,0,0,0,.686-.686V9.418A.687.687,0,0,0,30.093,8.732Zm-.017,2.342H28.437V9.435h1.639Zm7.89,5.047h1.673a.687.687,0,0,0,.686-.686V13.763a.687.687,0,0,0-.686-.686H37.966a.687.687,0,0,0-.686.686v1.673A.687.687,0,0,0,37.966,16.121Zm.017-2.342h1.639v1.639H37.983ZM45.446,1.605h-1.5V1.068A1.069,1.069,0,0,0,42.877,0h-.161a1.069,1.069,0,0,0-1.068,1.068v.537H31.185V1.068A1.069,1.069,0,0,0,30.117,0h-.161a1.069,1.069,0,0,0-1.068,1.068v.537h-1.5a1.761,1.761,0,0,0-1.759,1.759V22.222a1.758,1.758,0,0,0,1.756,1.756H45.449a1.758,1.758,0,0,0,1.756-1.756V3.364a1.761,1.761,0,0,0-1.759-1.759Zm-3.1-.537A.366.366,0,0,1,42.715.7h.161a.366.366,0,0,1,.366.366v.537H42.35Zm-12.76,0A.366.366,0,0,1,29.955.7h.161a.366.366,0,0,1,.366.366v.537H29.59V1.068ZM46.5,22.222a1.055,1.055,0,0,1-1.054,1.054H27.383a1.055,1.055,0,0,1-1.054-1.054v0a1.749,1.749,0,0,0,1.056.353H41.627a1.747,1.747,0,0,0,1.244-.515L46.5,18.426Zm-3.991-.8a1.5,1.5,0,0,0,.043-.354V18.724a.8.8,0,0,1,.8-.8H45.7a1.5,1.5,0,0,0,.354-.043ZM46.5,6.625H31.536a.351.351,0,0,0,0,.7H46.5v9.091a.8.8,0,0,1-.8.8H43.356a1.506,1.506,0,0,0-1.5,1.5v2.345a.8.8,0,0,1-.8.8H27.386a1.057,1.057,0,0,1-1.056-1.056V7.327h3.8a.351.351,0,0,0,0-.7h-3.8V3.364a1.057,1.057,0,0,1,1.056-1.056h1.5V3.34a1.069,1.069,0,0,0,1.068,1.068.351.351,0,1,0,0-.7.366.366,0,0,1-.366-.366V2.308H41.647V3.34a1.069,1.069,0,0,0,1.068,1.068.351.351,0,1,0,0-.7.366.366,0,0,1-.366-.366V2.308h3.1A1.057,1.057,0,0,1,46.5,3.364Zm-16.41,6.452H28.42a.687.687,0,0,0-.686.686v1.673a.687.687,0,0,0,.686.686h1.673a.687.687,0,0,0,.686-.686V13.763A.687.687,0,0,0,30.093,13.077Zm-.017,2.342H28.437V13.779h1.639Zm3.117-3.642h1.673a.687.687,0,0,0,.686-.686V9.418a.687.687,0,0,0-.686-.686H33.193a.687.687,0,0,0-.686.686v1.673A.687.687,0,0,0,33.193,11.776Zm.017-2.342h1.639v1.639H33.21Zm4.773,10.329a.351.351,0,0,0-.7.017.687.687,0,0,0,.686.686h1.673a.687.687,0,0,0,.686-.686V18.108a.687.687,0,0,0-.686-.686H37.966a.687.687,0,0,0-.686.686v.482a.351.351,0,1,0,.7,0v-.466h1.639v1.639Zm-4.789-3.642h1.673a.687.687,0,0,0,.686-.686V13.763a.687.687,0,0,0-.686-.686H33.193a.687.687,0,0,0-.686.686v1.673A.687.687,0,0,0,33.193,16.121Zm.017-2.342h1.639v1.639H33.21Zm-.017,6.686h1.673a.687.687,0,0,0,.686-.686V18.108a.687.687,0,0,0-.686-.686H33.193a.687.687,0,0,0-.686.686V19.78A.687.687,0,0,0,33.193,20.466Zm.017-2.342h1.639v1.639H33.21Z" fill="#d0990f"/>
  </g>
</svg>
