<svg xmlns="http://www.w3.org/2000/svg" xmlns:xlink="http://www.w3.org/1999/xlink" width="50" height="50" viewBox="0 0 50 50">
  <defs>
    <linearGradient id="linear-gradient" x1="0.5" x2="0.5" y2="1" gradientUnits="objectBoundingBox">
      <stop offset="0" stop-color="#e2ab44"/>
      <stop offset="1" stop-color="#fee185"/>
    </linearGradient>
  </defs>
  <g id="Group_8580" data-name="Group 8580" transform="translate(-666 -949)">
    <g id="Group_8413" data-name="Group 8413" transform="translate(666 949)">
      <g id="Group_8412" data-name="Group 8412" transform="translate(0)">
        <circle id="Ellipse_1747" data-name="Ellipse 1747" cx="25" cy="25" r="25" fill="url(#linear-gradient)"/>
      </g>
    </g>
    <g id="Group_4116" data-name="Group 4116" transform="translate(677.623 959.136)">
      <path id="Path_97" data-name="Path 97" d="M46.333,14.25h2.024a.831.831,0,0,0,.83-.83V11.4a.831.831,0,0,0-.83-.83H46.333a.831.831,0,0,0-.83.83V13.42A.831.831,0,0,0,46.333,14.25Zm.02-2.833h1.983V13.4H46.353Zm-.02,8.217h2.024a.831.831,0,0,0,.83-.83V16.779a.831.831,0,0,0-.83-.83H46.333a.831.831,0,0,0-.83.83V18.8A.831.831,0,0,0,46.333,19.633Zm.02-2.833h1.983v1.983H46.353Zm-5.8-2.55h2.024a.831.831,0,0,0,.83-.83V11.4a.831.831,0,0,0-.83-.83H40.558a.831.831,0,0,0-.83.83V13.42A.831.831,0,0,0,40.558,14.25Zm.02-2.833h1.983V13.4H40.578Zm-9.547,9.665H29.007a.831.831,0,0,0-.83.83v2.024a.831.831,0,0,0,.83.83h2.024a.831.831,0,0,0,.83-.83V21.91A.831.831,0,0,0,31.031,21.081Zm-.02,2.833H29.027V21.931H31.01Zm.02-13.348H29.007a.831.831,0,0,0-.83.83V13.42a.831.831,0,0,0,.83.83h2.024a.831.831,0,0,0,.83-.83V11.4A.831.831,0,0,0,31.031,10.566ZM31.01,13.4H29.027V11.416H31.01Zm9.547,6.107h2.024a.831.831,0,0,0,.83-.83V16.653a.831.831,0,0,0-.83-.83H40.558a.831.831,0,0,0-.83.83v2.024A.831.831,0,0,0,40.558,19.507Zm.02-2.833h1.983v1.983H40.578ZM49.609,1.942H47.792v-.65A1.294,1.294,0,0,0,46.5,0h-.2a1.294,1.294,0,0,0-1.292,1.292v.65H32.352v-.65A1.294,1.294,0,0,0,31.06,0h-.2a1.294,1.294,0,0,0-1.292,1.292v.65H27.755A2.13,2.13,0,0,0,25.627,4.07V26.889a2.127,2.127,0,0,0,2.125,2.125h21.86a2.127,2.127,0,0,0,2.125-2.125V4.07a2.13,2.13,0,0,0-2.128-2.128Zm-3.747-.65A.443.443,0,0,1,46.3.85h.2a.443.443,0,0,1,.442.442v.65h-1.08Zm-15.44,0A.443.443,0,0,1,30.864.85h.2a.443.443,0,0,1,.442.442v.65h-1.08v-.65Zm20.465,25.6a1.276,1.276,0,0,1-1.275,1.275H27.752a1.276,1.276,0,0,1-1.275-1.275v0a2.117,2.117,0,0,0,1.278.428H44.987a2.114,2.114,0,0,0,1.5-.623l4.4-4.4Zm-4.829-.967a1.818,1.818,0,0,0,.051-.429V22.657a.971.971,0,0,1,.97-.97h2.837a1.818,1.818,0,0,0,.429-.051ZM50.887,8.016H32.777a.425.425,0,0,0,0,.85h18.11v11a.971.971,0,0,1-.97.97H47.08a1.822,1.822,0,0,0-1.82,1.82v2.837a.971.971,0,0,1-.97.97H27.755a1.279,1.279,0,0,1-1.278-1.278V8.866h4.6a.425.425,0,0,0,0-.85h-4.6V4.07a1.279,1.279,0,0,1,1.278-1.278h1.817v1.25a1.294,1.294,0,0,0,1.292,1.292.425.425,0,0,0,0-.85.443.443,0,0,1-.442-.442V2.792h14.59v1.25A1.294,1.294,0,0,0,46.3,5.334a.425.425,0,1,0,0-.85.443.443,0,0,1-.442-.442V2.792h3.747A1.279,1.279,0,0,1,50.887,4.07ZM31.031,15.823H29.007a.831.831,0,0,0-.83.83v2.024a.831.831,0,0,0,.83.83h2.024a.831.831,0,0,0,.83-.83V16.653A.831.831,0,0,0,31.031,15.823Zm-.02,2.833H29.027V16.673H31.01Zm3.772-4.407h2.024a.831.831,0,0,0,.83-.83V11.4a.831.831,0,0,0-.83-.83H34.782a.831.831,0,0,0-.83.83V13.42A.831.831,0,0,0,34.782,14.25Zm.02-2.833h1.983V13.4H34.8Zm5.775,12.5a.425.425,0,0,0-.85.02.831.831,0,0,0,.83.83h2.024a.831.831,0,0,0,.83-.83V21.91a.831.831,0,0,0-.83-.83H40.558a.831.831,0,0,0-.83.83v.584a.425.425,0,0,0,.85,0v-.563h1.983v1.983Zm-5.8-4.407h2.024a.831.831,0,0,0,.83-.83V16.653a.831.831,0,0,0-.83-.83H34.782a.831.831,0,0,0-.83.83v2.024A.831.831,0,0,0,34.782,19.507Zm.02-2.833h1.983v1.983H34.8Zm-.02,8.091h2.024a.831.831,0,0,0,.83-.83V21.91a.831.831,0,0,0-.83-.83H34.782a.831.831,0,0,0-.83.83v2.024A.831.831,0,0,0,34.782,24.764Zm.02-2.833h1.983v1.983H34.8Z" transform="translate(-25.627)"/>
    </g>
  </g>
</svg>
