<svg xmlns="http://www.w3.org/2000/svg" width="25.16" height="21.658" viewBox="0 0 25.16 21.658">
  <g id="Group_5103" data-name="Group 5103" transform="translate(-123.75 -83.076)">
    <path id="Path_397" data-name="Path 397" d="M154.186,446.725a1.884,1.884,0,1,0-1.884,1.883,1.886,1.886,0,0,0,1.884-1.883m-3.119,0a1.235,1.235,0,1,1,1.235,1.235,1.237,1.237,0,0,1-1.235-1.235" transform="translate(-19.106 -344.124)" fill="#019cde" stroke="#019cde" stroke-width="0.5"/>
    <path id="Path_398" data-name="Path 398" d="M365.52,448.607a1.883,1.883,0,1,0-1.883-1.883,1.886,1.886,0,0,0,1.883,1.883m0-3.119a1.235,1.235,0,1,1-1.235,1.235,1.237,1.237,0,0,1,1.235-1.235" transform="translate(-221.958 -344.123)" fill="#019cde" stroke="#019cde" stroke-width="0.5"/>
    <path id="Path_399" data-name="Path 399" d="M24.332,90.891H8.634a.324.324,0,0,0,0,.648H23.869l-2.311,6.349a1.216,1.216,0,0,1-.875.7l-11.731,1.49L5.993,89.034a2.654,2.654,0,0,0-2.462-1.889H.324a.324.324,0,1,0,0,.648H3.531A2.034,2.034,0,0,1,5.367,89.2L8.322,100.23a1.8,1.8,0,0,0-1.245,1.715,1.866,1.866,0,0,0,1.864,1.864H20.632a.324.324,0,1,0,0-.648H8.941a1.218,1.218,0,0,1-1.216-1.216c0-.65.472-1.105,1.257-1.219l11.783-1.5a1.864,1.864,0,0,0,1.4-1.12l2.469-6.784a.324.324,0,0,0-.3-.435" transform="translate(124 -3.819)" fill="#019cde" stroke="#019cde" stroke-width="0.5"/>
  </g>
</svg>
