<svg id="Group_8127" data-name="Group 8127" xmlns="http://www.w3.org/2000/svg" width="18.001" height="18.001" viewBox="0 0 18.001 18.001">
  <path id="Path_74" data-name="Path 74" d="M9,0a9,9,0,1,0,9,9A9.011,9.011,0,0,0,9,0ZM9,16.458A7.457,7.457,0,1,1,16.458,9,7.466,7.466,0,0,1,9,16.458Z" fill="#d0990f"/>
  <path id="Path_75" data-name="Path 75" d="M61.309,57.962a.771.771,0,0,0-1.084.125l-3.55,4.476L54.551,60.3a.771.771,0,1,0-1.126,1.055l2.736,2.919a.771.771,0,0,0,.563.244h.032a.773.773,0,0,0,.573-.292l4.106-5.177A.771.771,0,0,0,61.309,57.962Z" transform="translate(-47.719 -51.824)" fill="#d0990f"/>
</svg>
