<svg xmlns="http://www.w3.org/2000/svg" xmlns:xlink="http://www.w3.org/1999/xlink" width="80" height="80" viewBox="0 0 80 80">
  <defs>
    <linearGradient id="linear-gradient" x1="0.5" x2="0.5" y2="1" gradientUnits="objectBoundingBox">
      <stop offset="0" stop-color="#e2ab44"/>
      <stop offset="1" stop-color="#fee185"/>
    </linearGradient>
    <clipPath id="clip-path">
      <rect id="Rectangle_2090" data-name="Rectangle 2090" width="36.113" height="33.492" fill="#d0990f"/>
    </clipPath>
  </defs>
  <g id="Group_8999" data-name="Group 8999" transform="translate(0 0.113)">
    <circle id="Ellipse_1797" data-name="Ellipse 1797" cx="40" cy="40" r="40" transform="translate(0 -0.113)" fill="#fff"/>
    <path id="Union_23" data-name="Union 23" d="M26.841,66.549a33.45,33.45,0,0,1-12.02-5.059A33.606,33.606,0,0,1,9.845,9.845,33.944,33.944,0,0,1,14.821,5.74a33.582,33.582,0,0,1,37.59,0,33.8,33.8,0,0,1,9.079,9.081,33.45,33.45,0,0,1,5.059,12.02,33.926,33.926,0,0,1,0,13.55A33.444,33.444,0,0,1,61.49,52.411,33.711,33.711,0,0,1,46.7,64.589a33.308,33.308,0,0,1-6.311,1.959,33.926,33.926,0,0,1-13.55,0ZM6.481,33.735A27.253,27.253,0,1,0,33.734,6.481,27.283,27.283,0,0,0,6.481,33.735Z" transform="translate(6.942 7.229)" fill="url(#linear-gradient)"/>
    <g id="Group_8998" data-name="Group 8998" transform="translate(22.664 24.21)">
      <g id="Group_8998-2" data-name="Group 8998" clip-path="url(#clip-path)">
        <path id="Path_23237" data-name="Path 23237" d="M21.07,41.877A30.073,30.073,0,0,1,11.764,40.4,2.361,2.361,0,0,1,10.4,37.082l4.37-8.5a.7.7,0,0,1,1.251.642l-4.371,8.5a.937.937,0,0,0-.034.795.959.959,0,0,0,.592.549,28.717,28.717,0,0,0,17.734,0,.96.96,0,0,0,.591-.549.937.937,0,0,0-.034-.795l-4.371-8.5a.7.7,0,0,1,1.251-.642l4.37,8.5A2.362,2.362,0,0,1,30.377,40.4a30.082,30.082,0,0,1-9.307,1.473" transform="translate(-3.014 -8.385)" fill="#d0990f"/>
        <path id="Path_23238" data-name="Path 23238" d="M8.171,36.492a.7.7,0,0,1-.357-.1L.346,31.99a.7.7,0,0,1-.274-.916L3.44,24.228a.7.7,0,0,1,.873-.349l8.308,3.064a.7.7,0,0,1,.382.98L8.8,36.11a.706.706,0,0,1-.429.354.721.721,0,0,1-.2.027M1.621,31.11l6.265,3.7,3.5-6.818-6.969-2.57Z" transform="translate(0 -7.088)" fill="#d0990f"/>
        <path id="Path_23239" data-name="Path 23239" d="M12.875,20.163a.7.7,0,0,1-.58-1.1,22.464,22.464,0,0,0,2.622-6.05C15.942,9.3,16.4,1.075,16.4.992a.723.723,0,0,1,.74-.663.7.7,0,0,1,.664.74c-.019.344-.468,8.464-1.535,12.321a23.351,23.351,0,0,1-2.817,6.468.7.7,0,0,1-.58.306" transform="translate(-3.62 -0.098)" fill="#d0990f"/>
        <path id="Path_23240" data-name="Path 23240" d="M2.443,4.356a.7.7,0,0,1-.285-1.346A43.775,43.775,0,0,1,18.574,0,43.775,43.775,0,0,1,34.989,3.011.7.7,0,0,1,34.42,4.3,43.2,43.2,0,0,0,18.574,1.405,43.077,43.077,0,0,0,2.727,4.3a.716.716,0,0,1-.284.06" transform="translate(-0.517 0)" fill="#d0990f"/>
        <path id="Path_23241" data-name="Path 23241" d="M12.822,13.636h-.045a59.063,59.063,0,0,1-9.589-1.672.7.7,0,0,1-.515-.578L1.748,5a.7.7,0,0,1,1.39-.2L4,10.717a56.712,56.712,0,0,0,8.87,1.515.7.7,0,0,1-.044,1.4" transform="translate(-0.518 -1.249)" fill="#d0990f"/>
        <path id="Path_23242" data-name="Path 23242" d="M37.69,36.492a.687.687,0,0,1-.2-.028.7.7,0,0,1-.43-.353l-4.207-8.186a.7.7,0,0,1,.382-.98l8.308-3.064a.7.7,0,0,1,.873.349l3.368,6.846a.7.7,0,0,1-.273.916l-7.468,4.4a.7.7,0,0,1-.357.1m-3.22-8.5,3.5,6.818,6.265-3.7-2.8-5.693Z" transform="translate(-9.748 -7.088)" fill="#d0990f"/>
        <path id="Path_23243" data-name="Path 23243" d="M36.138,20.163a.7.7,0,0,1-.58-.306,23.351,23.351,0,0,1-2.817-6.468C31.675,9.532,31.226,1.412,31.207,1.068a.7.7,0,0,1,.664-.74.722.722,0,0,1,.74.663c0,.083.46,8.312,1.485,12.023a22.315,22.315,0,0,0,2.622,6.05.7.7,0,0,1-.579,1.1" transform="translate(-9.28 -0.097)" fill="#d0990f"/>
        <path id="Path_23244" data-name="Path 23244" d="M33.588,13.636a.7.7,0,0,1-.044-1.4,56.767,56.767,0,0,0,8.87-1.514L43.272,4.8a.7.7,0,0,1,1.391.2l-.925,6.381a.7.7,0,0,1-.515.578,59.065,59.065,0,0,1-9.588,1.672h-.046" transform="translate(-9.779 -1.249)" fill="#d0990f"/>
        <path id="Path_23245" data-name="Path 23245" d="M20.919,29.383a1.411,1.411,0,0,1-1.046-.469,1.39,1.39,0,0,0-2.07.077.7.7,0,1,1-1.113-.859,2.753,2.753,0,0,1,4.228-.157,2.752,2.752,0,0,1,4.1,0,2.754,2.754,0,0,1,4.231.157.7.7,0,1,1-1.113.859,1.39,1.39,0,0,0-2.07-.077,1.447,1.447,0,0,1-2.093,0,1.389,1.389,0,0,0-2.005,0,1.411,1.411,0,0,1-1.046.469" transform="translate(-4.92 -8.047)" fill="#d0990f"/>
      </g>
    </g>
  </g>
</svg>
