<svg id="Group_8416" data-name="Group 8416" xmlns="http://www.w3.org/2000/svg" xmlns:xlink="http://www.w3.org/1999/xlink" width="38.622" height="33.453" viewBox="0 0 38.622 33.453">
  <defs>
    <clipPath id="clip-path">
      <rect id="Rectangle_329" data-name="Rectangle 329" width="38.622" height="33.453" fill="#d0990f" stroke="#d0990f" stroke-width="0.4"/>
    </clipPath>
  </defs>
  <g id="Group_8416-2" data-name="Group 8416" clip-path="url(#clip-path)">
    <path id="Path_23078" data-name="Path 23078" d="M93.927,83.89a2.164,2.164,0,0,0-1.538-1.28l-.065-.01v-.038l-.011-.055c-.578-2.961-2.36-9.848-6.431-9.848a3.462,3.462,0,0,0-1.634.418,6.292,6.292,0,0,1-4.943,0,3.462,3.462,0,0,0-1.634-.418c-4.071,0-5.854,6.887-6.431,9.848l-.011.055V82.6l-.065.01a2.164,2.164,0,0,0-1.538,1.28,3.951,3.951,0,0,0-.273,2.4A3.282,3.282,0,0,0,71.676,89.1a13.639,13.639,0,0,0,4.176,7.226,12.259,12.259,0,0,0,1.557,1.182,7.263,7.263,0,0,0,8.73,0A12.237,12.237,0,0,0,87.7,96.326,13.64,13.64,0,0,0,91.873,89.1,3.282,3.282,0,0,0,94.2,86.291a3.953,3.953,0,0,0-.273-2.4m-1.12,2.149c-.178.98-.758,1.622-1.215,1.675l-.9.1-.185.881a12.223,12.223,0,0,1-3.759,6.574,10.813,10.813,0,0,1-1.376,1.045,5.869,5.869,0,0,1-7.2,0h0A10.825,10.825,0,0,1,76.8,95.274,12.223,12.223,0,0,1,73.038,88.7l-.185-.881-.9-.1c-.458-.054-1.038-.7-1.216-1.676A2.538,2.538,0,0,1,70.9,84.5a.823.823,0,0,1,.51-.5c.017,0,.036,0,.052,0l1.142-.071.035-1.2a25.411,25.411,0,0,1,1.6-5.241c.7-1.556,1.868-3.41,3.432-3.41a2.108,2.108,0,0,1,1.031.284,7.7,7.7,0,0,0,6.149,0,2.108,2.108,0,0,1,1.031-.284c1.564,0,2.73,1.854,3.433,3.41a25.411,25.411,0,0,1,1.6,5.241l.035,1.2L92.087,84l.05,0a.822.822,0,0,1,.514.5,2.54,2.54,0,0,1,.157,1.537" transform="translate(-62.464 -65.513)" fill="#d0990f" stroke="#d0990f" stroke-width="0.4"/>
    <path id="Path_23079" data-name="Path 23079" d="M38.531,21.655a18.075,18.075,0,0,0-3.894-5.085A20.225,20.225,0,0,0,37.95,8.9a.706.706,0,0,0-.518-.811,18.574,18.574,0,0,0-6.671-.657A19.316,19.316,0,0,0,27.623.289a.709.709,0,0,0-.782-.256,27.5,27.5,0,0,0-7.53,3.911A27.5,27.5,0,0,0,11.781.033.709.709,0,0,0,11,.289,19.315,19.315,0,0,0,7.861,7.436a18.574,18.574,0,0,0-6.671.657A.706.706,0,0,0,.672,8.9,20.228,20.228,0,0,0,3.984,16.57,18.071,18.071,0,0,0,.091,21.655a.705.705,0,0,0,.062.785,14.214,14.214,0,0,0,5.325,3.772A16.4,16.4,0,0,0,4.7,32.519a.707.707,0,0,0,.7.633h.035a42.958,42.958,0,0,0,8.495-1.88c-.186-.148-.369-.3-.547-.457-.233-.208-.457-.426-.674-.651a43.881,43.881,0,0,1-6.652,1.52,16.277,16.277,0,0,1,.964-5.622.706.706,0,0,0-.425-.922,14.182,14.182,0,0,1-5.034-3.216c2.14-3.661,3.73-4.572,3.739-4.578a.706.706,0,0,0,.221-1.07A19.34,19.34,0,0,1,2.2,9.3a14.473,14.473,0,0,1,6.053-.372.708.708,0,0,0,.879-.584,18.215,18.215,0,0,1,2.716-6.8,27.349,27.349,0,0,1,6.87,3.714l.136.1a.895.895,0,0,0,.917,0l.136-.1a27.347,27.347,0,0,1,6.87-3.714,18.317,18.317,0,0,1,2.716,6.8.71.71,0,0,0,.875.585,14.466,14.466,0,0,1,6.056.372,19.337,19.337,0,0,1-3.329,6.974.7.7,0,0,0,.213,1.067c.016.009,1.606.921,3.747,4.581a14.256,14.256,0,0,1-5.034,3.216.706.706,0,0,0-.424.922,16.19,16.19,0,0,1,.964,5.623,43.885,43.885,0,0,1-6.652-1.52c-.217.225-.441.443-.674.651-.177.158-.361.31-.547.457a42.959,42.959,0,0,0,8.495,1.88.709.709,0,0,0,.739-.632,16.4,16.4,0,0,0-.776-6.307,14.216,14.216,0,0,0,5.325-3.772.705.705,0,0,0,.062-.785" transform="translate(0 -0.001)" fill="#d0990f" stroke="#d0990f" stroke-width="0.4"/>
    <path id="Path_23080" data-name="Path 23080" d="M175.173,187.581a2.537,2.537,0,0,1-2.537-2.531,2.971,2.971,0,0,1,1.295-2.3c.431-.376.675-.6.675-.9a.566.566,0,0,1,1.133,0,2.341,2.341,0,0,1-1.063,1.751c-.487.425-.908.791-.908,1.446a1.4,1.4,0,0,0,2.518.853.566.566,0,0,1,.9.689,2.522,2.522,0,0,1-2.012.989" transform="translate(-155.658 -163.459)" fill="#d0990f" stroke="#d0990f" stroke-width="0.4"/>
    <path id="Path_23081" data-name="Path 23081" d="M139.214,232.215c-.757-2.5-2.9-3.315-4.685-3.617a.564.564,0,0,1-.034.639,2.566,2.566,0,0,1-.421.43c1.475.2,3.143.729,3.884,2.41a23.569,23.569,0,0,1-5.677.7h-.068a23.273,23.273,0,0,1-3.082-.215l-.013,0a22.683,22.683,0,0,1-2.518-.479c.8-1.819,2.688-2.284,4.241-2.454a2.542,2.542,0,0,1-.734-1.038c-1.81.293-4.012,1.095-4.772,3.657a.565.565,0,0,0,.119.624.585.585,0,0,0,.242.143h0l.015,0a25.081,25.081,0,0,0,6.5.891h.068a24.723,24.723,0,0,0,6.566-.891l.039-.012a.564.564,0,0,0,.328-.786" transform="translate(-112.968 -206.105)" fill="#d0990f" stroke="#d0990f" stroke-width="0.4"/>
    <path id="Path_23082" data-name="Path 23082" d="M144,180.427a1.126,1.126,0,1,0,1.128,1.126A1.127,1.127,0,0,0,144,180.427" transform="translate(-128.821 -162.683)" fill="#d0990f" stroke="#d0990f" stroke-width="0.4"/>
    <path id="Path_23083" data-name="Path 23083" d="M228.033,180.427a1.126,1.126,0,1,0,1.128,1.126,1.127,1.127,0,0,0-1.128-1.126" transform="translate(-204.59 -162.683)" fill="#d0990f" stroke="#d0990f" stroke-width="0.4"/>
    <path id="Path_23084" data-name="Path 23084" d="M121.607,137.1a3.859,3.859,0,0,0-3.631,2.163,1.774,1.774,0,0,0-.041,1.784.731.731,0,0,0,.58.258,3.165,3.165,0,0,0,1.106-.341,8.01,8.01,0,0,1,1.492-.515,3.933,3.933,0,0,1,.767-.065c.217,0,.429.011.634.022.185.01.359.019.521.019a1.37,1.37,0,0,0,1-.3,1.481,1.481,0,0,0,.342-1.647,2.784,2.784,0,0,0-2.767-1.375m1.666,2.179a1.354,1.354,0,0,1-.238.015c-.133,0-.293-.008-.463-.017-.209-.011-.446-.023-.693-.023a5.045,5.045,0,0,0-.989.087,8.9,8.9,0,0,0-1.713.582c-.09.038-.192.081-.29.121a2.281,2.281,0,0,1,.383-.741,2.824,2.824,0,0,1,2.336-1.073c1.065,0,1.592.362,1.718.672a.354.354,0,0,1-.052.376" transform="translate(-106.133 -123.619)" fill="#d0990f" stroke="#d0990f" stroke-width="0.4"/>
    <path id="Path_23085" data-name="Path 23085" d="M212.573,139.264a3.859,3.859,0,0,0-3.631-2.163,2.784,2.784,0,0,0-2.767,1.375,1.481,1.481,0,0,0,.342,1.647,1.371,1.371,0,0,0,1,.3c.162,0,.337-.009.521-.018.2-.011.417-.022.634-.022a3.933,3.933,0,0,1,.767.065,8,8,0,0,1,1.492.515,3.166,3.166,0,0,0,1.106.341.73.73,0,0,0,.58-.258,1.774,1.774,0,0,0-.041-1.784m-1.2.66a8.908,8.908,0,0,0-1.712-.582,5.039,5.039,0,0,0-.989-.087c-.247,0-.484.012-.693.023-.169.009-.33.017-.463.017a1.355,1.355,0,0,1-.238-.015.354.354,0,0,1-.052-.376c.127-.31.653-.672,1.718-.672a2.824,2.824,0,0,1,2.336,1.073,2.283,2.283,0,0,1,.383.741c-.1-.04-.2-.083-.29-.121" transform="translate(-185.794 -123.618)" fill="#d0990f" stroke="#d0990f" stroke-width="0.4"/>
  </g>
</svg>
