<svg xmlns="http://www.w3.org/2000/svg" width="24.977" height="23.235" viewBox="0 0 24.977 23.235">
  <g id="Group_8273" data-name="Group 8273" transform="translate(0 0)">
    <path id="Path_23052" data-name="Path 23052" d="M27.7,48.584v.858a.506.506,0,0,0,1.013,0v-.858a.506.506,0,1,0-1.013,0" transform="translate(-20.241 -35.129)" fill="#101c1d"/>
    <path id="Path_23053" data-name="Path 23053" d="M61.622,48.584v.858a.506.506,0,0,0,1.013,0v-.858a.506.506,0,1,0-1.013,0" transform="translate(-45.025 -35.129)" fill="#101c1d"/>
    <path id="Path_23054" data-name="Path 23054" d="M2.788,16.122a10.169,10.169,0,0,0,19.4,0,3.069,3.069,0,0,0,.068-6.106c-.024,0-.049,0-.073-.005a10.23,10.23,0,0,0-2.066-3.668.506.506,0,0,0-.76.669A9.213,9.213,0,0,1,21.147,10.1a3.056,3.056,0,0,0-1.295.688.506.506,0,1,0,.678.752,2.058,2.058,0,0,1,1.3-.524h0a2.056,2.056,0,1,1,.079,4.111l-.026,0a.505.505,0,0,0-.563.364A9.158,9.158,0,0,1,3.658,15.5a.5.5,0,0,0-.542-.368c-.016,0-.031,0-.047,0a2.058,2.058,0,0,1-.236-4.1,2.118,2.118,0,0,1,.315-.008h0a2.058,2.058,0,0,1,1.3.524.506.506,0,0,0,.678-.752,3.053,3.053,0,0,0-1.3-.688A9.17,9.17,0,0,1,6.965,5.772c.016.015.031.032.047.046a3.329,3.329,0,0,0,4.813-.372,2.119,2.119,0,0,0,1.325,0,3.327,3.327,0,0,0,1.15.9,3.561,3.561,0,0,1,.563,2.182,2.334,2.334,0,0,1-2.331,2.331,1.631,1.631,0,0,1-1.764-1.579,1.311,1.311,0,0,1,1.31-1.309.729.729,0,0,1,.808.808.506.506,0,1,0,1.012,0,1.723,1.723,0,0,0-1.82-1.82A2.325,2.325,0,0,0,9.756,9.284a2.63,2.63,0,0,0,2.777,2.592,3.348,3.348,0,0,0,3.344-3.344,5.483,5.483,0,0,0-.28-1.864c.046,0,.092.007.139.007a3.338,3.338,0,1,0-2.586-5.444,2.262,2.262,0,0,0-1.322,0A3.335,3.335,0,0,0,5.9,3.338a3.278,3.278,0,0,0,.436,1.639,10.176,10.176,0,0,0-3.55,5.035l-.066,0a3.069,3.069,0,0,0,.066,6.107M15.735,1.013a2.325,2.325,0,1,1-.9,4.469h0a2.318,2.318,0,0,1-.8-.563,2.2,2.2,0,0,0,.007-3.16,2.3,2.3,0,0,1,1.7-.746M13.078,2.291h0a1.2,1.2,0,0,1,0,2.088h0l-.01.006,0,0,0,0-.03.019a1.2,1.2,0,0,1-1.13-.027h0a1.2,1.2,0,0,1,0-2.091h0a1.207,1.207,0,0,1,1.18,0M9.241,1.013a2.3,2.3,0,0,1,1.7.746,2.208,2.208,0,0,0,0,3.158,2.308,2.308,0,0,1-3.249.148,2.377,2.377,0,0,1-.262-.283h0a2.291,2.291,0,0,1-.511-1.444A2.328,2.328,0,0,1,9.241,1.013" transform="translate(0 0)" fill="#101c1d"/>
    <path id="Path_23055" data-name="Path 23055" d="M40.308,62.319a2.507,2.507,0,0,1-4.146,0,.506.506,0,1,0-.837.571,3.52,3.52,0,0,0,5.82,0,.506.506,0,1,0-.837-.57" transform="translate(-25.746 -45.373)" fill="#101c1d"/>
  </g>
</svg>
