<svg xmlns="http://www.w3.org/2000/svg" width="43.98" height="23.474" viewBox="0 0 43.98 23.474">
  <g id="Group_8268" data-name="Group 8268" transform="translate(-799 -793)">
    <g id="Group_8241" data-name="Group 8241" transform="translate(799 793)">
      <path id="Path_23052" data-name="Path 23052" d="M27.7,48.59v.867a.512.512,0,0,0,1.023,0V48.59a.512.512,0,0,0-1.023,0" transform="translate(-20.165 -34.996)" fill="#101c1d"/>
      <path id="Path_23053" data-name="Path 23053" d="M61.622,48.59v.867a.512.512,0,0,0,1.023,0V48.59a.512.512,0,0,0-1.023,0" transform="translate(-44.855 -34.996)" fill="#101c1d"/>
      <path id="Path_23054" data-name="Path 23054" d="M2.817,16.288a10.273,10.273,0,0,0,19.6,0,3.1,3.1,0,0,0,.069-6.169c-.024,0-.05,0-.074-.005a10.335,10.335,0,0,0-2.087-3.706.512.512,0,0,0-.768.676A9.308,9.308,0,0,1,21.363,10.2a3.088,3.088,0,0,0-1.308.695.511.511,0,1,0,.685.76,2.079,2.079,0,0,1,1.311-.529h0a2.077,2.077,0,1,1,.08,4.153l-.026,0a.511.511,0,0,0-.569.368,9.251,9.251,0,0,1-17.84.005.509.509,0,0,0-.547-.371c-.016,0-.031,0-.047,0a2.079,2.079,0,0,1-.238-4.145,2.14,2.14,0,0,1,.318-.008h0a2.08,2.08,0,0,1,1.311.529.511.511,0,0,0,.685-.76,3.084,3.084,0,0,0-1.311-.7,9.264,9.264,0,0,1,3.17-4.37c.016.015.032.032.048.047A3.363,3.363,0,0,0,11.947,5.5a2.141,2.141,0,0,0,1.339,0,3.361,3.361,0,0,0,1.162.912,3.6,3.6,0,0,1,.569,2.2,2.358,2.358,0,0,1-2.355,2.355,1.648,1.648,0,0,1-1.782-1.6A1.324,1.324,0,0,1,12.2,8.056a.736.736,0,0,1,.816.816.511.511,0,1,0,1.023,0A1.741,1.741,0,0,0,12.2,7.033,2.349,2.349,0,0,0,9.856,9.379,2.657,2.657,0,0,0,12.661,12,3.382,3.382,0,0,0,16.039,8.62a5.539,5.539,0,0,0-.283-1.883c.047,0,.093.007.14.007a3.372,3.372,0,1,0-2.612-5.5,2.286,2.286,0,0,0-1.336,0A3.37,3.37,0,0,0,5.964,3.372,3.311,3.311,0,0,0,6.4,5.027a10.28,10.28,0,0,0-3.587,5.087l-.067,0a3.1,3.1,0,0,0,.066,6.169M15.9,1.023a2.349,2.349,0,1,1-.91,4.515h0a2.341,2.341,0,0,1-.811-.569,2.224,2.224,0,0,0,.007-3.192A2.324,2.324,0,0,1,15.9,1.023M13.212,2.315h0a1.209,1.209,0,0,1,0,2.109h0l-.01.007,0,0,0,0-.031.019a1.21,1.21,0,0,1-1.141-.027h0a1.212,1.212,0,0,1,0-2.113h0a1.22,1.22,0,0,1,1.193,0M9.336,1.023a2.325,2.325,0,0,1,1.714.753,2.231,2.231,0,0,0,0,3.191,2.332,2.332,0,0,1-3.282.149A2.4,2.4,0,0,1,7.5,4.831h0a2.314,2.314,0,0,1-.516-1.459A2.351,2.351,0,0,1,9.336,1.023" transform="translate(0)" fill="#101c1d"/>
      <path id="Path_23055" data-name="Path 23055" d="M40.36,62.321a2.533,2.533,0,0,1-4.189,0,.512.512,0,1,0-.845.577,3.556,3.556,0,0,0,5.879,0,.511.511,0,1,0-.845-.576" transform="translate(-25.649 -45.201)" fill="#101c1d"/>
    </g>
    <path id="Path_23073" data-name="Path 23073" d="M2884.443,8031.134a47.209,47.209,0,0,0,.3,5.372c.234.546.546,5.7.546,5.7l2.967,1.405,2.733,4.138h1.171l-1.171-18.114Z" transform="translate(-2066.337 -7232.857)" fill="#fff"/>
    <g id="Group_8267" data-name="Group 8267" transform="translate(817.748 793.815)">
      <path id="Path_23056" data-name="Path 23056" d="M192.9,47.159v.867a.512.512,0,1,0,1.023,0v-.867a.512.512,0,1,0-1.023,0" transform="translate(-185.367 -34.497)" fill="#101c1d"/>
      <path id="Path_23057" data-name="Path 23057" d="M227.337,48.537a.512.512,0,0,0,.512-.512v-.867a.512.512,0,1,0-1.023,0v.867a.512.512,0,0,0,.512.512" transform="translate(-210.058 -34.497)" fill="#101c1d"/>
      <path id="Path_23058" data-name="Path 23058" d="M168.019,17.35a10.273,10.273,0,0,0,19.6,0,3.1,3.1,0,0,0,.069-6.169c-.023,0-.047,0-.07,0a10.347,10.347,0,0,0-3.475-5.011.511.511,0,0,0-.63.806,9.32,9.32,0,0,1,3.053,4.294,3.084,3.084,0,0,0-1.3.694.511.511,0,1,0,.685.76,2.078,2.078,0,0,1,1.307-.529h.006a2.12,2.12,0,0,1,.317.008,2.079,2.079,0,0,1-.239,4.144l-.026,0a.51.51,0,0,0-.569.368,9.251,9.251,0,0,1-17.84.005.51.51,0,0,0-.547-.372c-.016,0-.031,0-.048,0a2.079,2.079,0,0,1-.239-4.144,2.145,2.145,0,0,1,.319-.008,2.08,2.08,0,0,1,1.311.529.511.511,0,1,0,.685-.76,3.089,3.089,0,0,0-1.312-.7,9.278,9.278,0,0,1,5.762-5.753,2.572,2.572,0,0,0,2.531,2.14,1.9,1.9,0,0,0,2-2,1.831,1.831,0,0,0-1.829-1.829.511.511,0,1,0,0,1.023.807.807,0,0,1,.806.806.883.883,0,0,1-.978.978,1.549,1.549,0,0,1-1.547-1.547c0-.068,0-.135.01-.2h0a2.052,2.052,0,0,1,2.051-1.86,2.708,2.708,0,0,1,2.7,2.705,3.513,3.513,0,0,1-3.509,3.509.512.512,0,1,0,0,1.023A4.537,4.537,0,0,0,181.6,5.722a3.732,3.732,0,0,0-3.728-3.728,3.069,3.069,0,0,0-3.014,2.436,10.293,10.293,0,0,0-6.837,6.746c-.023,0-.048,0-.072,0a3.1,3.1,0,0,0,.066,6.169" transform="translate(-165.202 -1.994)" fill="#101c1d"/>
      <path id="Path_23059" data-name="Path 23059" d="M205.562,60.89a2.533,2.533,0,0,1-4.189,0,.512.512,0,1,0-.845.577,3.556,3.556,0,0,0,5.879,0,.511.511,0,1,0-.845-.576" transform="translate(-190.851 -44.703)" fill="#101c1d"/>
    </g>
  </g>
</svg>
