<svg xmlns="http://www.w3.org/2000/svg" width="24.977" height="22.313" viewBox="0 0 24.977 22.313">
  <g id="Group_8243" data-name="Group 8243" transform="translate(0 0)">
    <path id="Path_23056" data-name="Path 23056" d="M192.9,47.153v.858a.506.506,0,1,0,1.013,0v-.858a.506.506,0,1,0-1.013,0" transform="translate(-185.444 -34.621)" fill="#101c1d"/>
    <path id="Path_23057" data-name="Path 23057" d="M227.331,48.518a.506.506,0,0,0,.506-.506v-.858a.506.506,0,1,0-1.013,0v.858a.506.506,0,0,0,.506.506" transform="translate(-210.228 -34.621)" fill="#101c1d"/>
    <path id="Path_23058" data-name="Path 23058" d="M167.99,17.194a10.169,10.169,0,0,0,19.4,0,3.069,3.069,0,0,0,.068-6.106c-.023,0-.047,0-.069,0a10.242,10.242,0,0,0-3.44-4.96.506.506,0,0,0-.624.8,9.225,9.225,0,0,1,3.022,4.251,3.053,3.053,0,0,0-1.291.687.506.506,0,1,0,.678.752,2.057,2.057,0,0,1,1.294-.523h.006a2.1,2.1,0,0,1,.313.008,2.058,2.058,0,0,1-.236,4.1l-.026,0a.505.505,0,0,0-.563.364,9.158,9.158,0,0,1-17.659.005.505.505,0,0,0-.541-.368c-.016,0-.031,0-.047,0a2.058,2.058,0,0,1-.236-4.1,2.123,2.123,0,0,1,.316-.008,2.059,2.059,0,0,1,1.3.524.506.506,0,1,0,.678-.752,3.057,3.057,0,0,0-1.3-.689,9.183,9.183,0,0,1,5.7-5.7,2.546,2.546,0,0,0,2.505,2.118,1.876,1.876,0,0,0,1.981-1.981,1.812,1.812,0,0,0-1.81-1.81.506.506,0,1,0,0,1.012.8.8,0,0,1,.8.8.874.874,0,0,1-.969.969,1.533,1.533,0,0,1-1.531-1.531c0-.067,0-.134.01-.2h0a2.031,2.031,0,0,1,2.031-1.841,2.681,2.681,0,0,1,2.677,2.678,3.477,3.477,0,0,1-3.473,3.473.506.506,0,1,0,0,1.013,4.491,4.491,0,0,0,4.486-4.486,3.694,3.694,0,0,0-3.69-3.69,3.038,3.038,0,0,0-2.983,2.411A10.189,10.189,0,0,0,168,11.083c-.023,0-.048,0-.071,0a3.069,3.069,0,0,0,.066,6.106" transform="translate(-165.202 -1.994)" fill="#101c1d"/>
    <path id="Path_23059" data-name="Path 23059" d="M205.51,60.888a2.507,2.507,0,0,1-4.146,0,.506.506,0,1,0-.837.571,3.52,3.52,0,0,0,5.82,0,.506.506,0,1,0-.837-.57" transform="translate(-190.948 -44.865)" fill="#101c1d"/>
  </g>
</svg>
