<svg xmlns="http://www.w3.org/2000/svg" width="29.033" height="44.906" viewBox="0 0 29.033 44.906">
  <path id="Union_19" data-name="Union 19" d="M-12613.793-7183.761v-3.583h-3.57a1.192,1.192,0,0,1-1.187-1.2,1.19,1.19,0,0,1,1.188-1.193h3.57v-6.747a10.675,10.675,0,0,1-5.911-2.578,10.711,10.711,0,0,1-3.653-7.747c-.021-.282-.033-.566-.033-.854a10.859,10.859,0,0,1,10.785-10.836,10.563,10.563,0,0,1,6.329,2.1l6.474-7.486-3.849.271a1.192,1.192,0,0,1-1.27-1.107,1.19,1.19,0,0,1,1.108-1.274l6.709-.473a1.187,1.187,0,0,1,1.269,1.108l.471,6.745a1.192,1.192,0,0,1-1.1,1.274,1.19,1.19,0,0,1-1.268-1.108l-.27-3.866-6.529,7.541a10.872,10.872,0,0,1,2.633,6.974,10.709,10.709,0,0,1-2.587,7.669,10.72,10.72,0,0,1-6.929,3.64v6.755h3.57a1.191,1.191,0,0,1,1.188,1.193,1.193,1.193,0,0,1-1.187,1.2h-3.57v3.583a1.192,1.192,0,0,1-1.188,1.2A1.192,1.192,0,0,1-12613.793-7183.761Zm1.188-15.535a8.353,8.353,0,0,0,8.325-8.365v-.07a8.48,8.48,0,0,0-2.885-5.818,8.306,8.306,0,0,0-11.745.826,8.468,8.468,0,0,0-2.07,5.783A8.4,8.4,0,0,0-12612.605-7199.3Z" transform="translate(12623.891 7226.969)" fill="#d0990f" stroke="rgba(0,0,0,0)" stroke-miterlimit="10" stroke-width="1"/>
</svg>
