<svg id="Group_4147" data-name="Group 4147" xmlns="http://www.w3.org/2000/svg" width="26.467" height="22.229" viewBox="0 0 26.467 22.229">
  <path id="Path_111" data-name="Path 111" d="M24.274,43.047a7.663,7.663,0,0,0-10.442,0l-.6.569-.6-.568a7.664,7.664,0,0,0-10.443,0,6.849,6.849,0,0,0,0,10.045l10.4,9.875a.928.928,0,0,0,1.278,0l10.4-9.875a6.848,6.848,0,0,0,0-10.044Zm-1.28,8.7-9.761,9.267L3.473,51.745a4.991,4.991,0,0,1,0-7.352,5.784,5.784,0,0,1,7.883,0l1.238,1.176a.928.928,0,0,0,1.279,0l1.238-1.177a5.784,5.784,0,0,1,7.883,0,4.991,4.991,0,0,1,0,7.352Z" transform="translate(0 -40.993)"/>
</svg>
