<svg id="Group_4203" data-name="Group 4203" xmlns="http://www.w3.org/2000/svg" width="17.903" height="15.036" viewBox="0 0 17.903 15.036">
  <g id="Group_4147" data-name="Group 4147">
    <path id="Path_111" data-name="Path 111" d="M16.42,42.382a5.183,5.183,0,0,0-7.063,0l-.4.385-.4-.384a5.184,5.184,0,0,0-7.064,0,4.633,4.633,0,0,0,0,6.795l7.036,6.68a.628.628,0,0,0,.865,0l7.036-6.68a4.632,4.632,0,0,0,0-6.794Zm-.866,5.883-6.6,6.269-6.6-6.269a3.376,3.376,0,0,1,0-4.973,3.912,3.912,0,0,1,5.332,0l.838.8a.628.628,0,0,0,.865,0l.838-.8a3.913,3.913,0,0,1,5.332,0,3.376,3.376,0,0,1,0,4.973Z" transform="translate(0 -40.993)" fill="#d0990f"/>
  </g>
</svg>
