<svg xmlns="http://www.w3.org/2000/svg" xmlns:xlink="http://www.w3.org/1999/xlink" width="19.204" height="18.408" viewBox="0 0 19.204 18.408">
  <defs>
    <linearGradient id="linear-gradient" x1="0.5" x2="0.5" y2="1" gradientUnits="objectBoundingBox">
      <stop offset="0" stop-color="#e2ab44"/>
      <stop offset="1" stop-color="#fee185"/>
    </linearGradient>
  </defs>
  <path id="Path_115" data-name="Path 115" d="M975.043-226.3a1.022,1.022,0,0,1-1.02-1.024,1.039,1.039,0,0,1,.025-.225l1.236-5.443-4.19-3.675a1.022,1.022,0,0,1-.1-1.442,1.017,1.017,0,0,1,.674-.345l5.542-.5,2.192-5.131a1.022,1.022,0,0,1,1.339-.54,1.018,1.018,0,0,1,.539.54l2.192,5.131,5.544.5a1.022,1.022,0,0,1,.925,1.111,1.02,1.02,0,0,1-.344.675l-4.19,3.675,1.236,5.443a1.02,1.02,0,0,1-.767,1.223,1.026,1.026,0,0,1-.752-.12l-4.781-2.857-4.779,2.857A1.032,1.032,0,0,1,975.043-226.3Zm5.305-4.235a1.015,1.015,0,0,1,.523.145l4.512,2.7-1.166-5.137a1.024,1.024,0,0,1,.323-1l3.957-3.471-5.235-.476a1.02,1.02,0,0,1-.848-.619l-2.066-4.841-2.07,4.84a1.017,1.017,0,0,1-.846.617l-5.236.476,3.957,3.471a1.017,1.017,0,0,1,.323.994l-1.164,5.138,4.512-2.7A1.022,1.022,0,0,1,980.348-230.533Zm-3.173-8.323,6.345,0h0v0Z" transform="translate(-970.744 244.707)" fill="url(#linear-gradient)"/>
</svg>
