<svg xmlns="http://www.w3.org/2000/svg" xmlns:xlink="http://www.w3.org/1999/xlink" width="174" height="174" viewBox="0 0 174 174">
  <defs>
    <filter id="Ellipse_1796" x="0" y="0" width="174" height="174" filterUnits="userSpaceOnUse">
      <feOffset dy="3" input="SourceAlpha"/>
      <feGaussianBlur stdDeviation="12" result="blur"/>
      <feFlood flood-opacity="0.078"/>
      <feComposite operator="in" in2="blur"/>
      <feComposite in="SourceGraphic"/>
    </filter>
    <linearGradient id="linear-gradient" x1="0.5" x2="0.5" y2="1" gradientUnits="objectBoundingBox">
      <stop offset="0" stop-color="#e2ab44"/>
      <stop offset="1" stop-color="#fee185"/>
    </linearGradient>
    <filter id="Subtraction_48" x="27" y="27" width="120.465" height="120.466" filterUnits="userSpaceOnUse">
      <feOffset dy="3" input="SourceAlpha"/>
      <feGaussianBlur stdDeviation="6" result="blur-2"/>
      <feFlood flood-opacity="0.102"/>
      <feComposite operator="in" in2="blur-2"/>
      <feComposite in="SourceGraphic"/>
    </filter>
  </defs>
  <g id="Group_8875" data-name="Group 8875" transform="translate(-842 -783)">
    <g id="Group_8813" data-name="Group 8813" transform="translate(-872 -66)">
      <g transform="matrix(1, 0, 0, 1, 1714, 849)" filter="url(#Ellipse_1796)">
        <circle id="Ellipse_1796-2" data-name="Ellipse 1796" cx="51" cy="51" r="51" transform="translate(36 33)" fill="#fff"/>
      </g>
      <g transform="matrix(1, 0, 0, 1, 1714, 849)" filter="url(#Subtraction_48)">
        <path id="Subtraction_48-2" data-name="Subtraction 48" d="M42.232,84.466a42.582,42.582,0,0,1-8.511-.858,42.034,42.034,0,0,1-15.1-6.355A42.258,42.258,0,0,1,25.794,3.318,41.984,41.984,0,0,1,33.721.858a42.626,42.626,0,0,1,17.023,0,41.985,41.985,0,0,1,15.1,6.354,42.348,42.348,0,0,1,15.3,18.582,42.011,42.011,0,0,1,2.461,7.928,42.638,42.638,0,0,1,0,17.021,41.981,41.981,0,0,1-6.355,15.1,42.352,42.352,0,0,1-18.581,15.3,41.847,41.847,0,0,1-7.927,2.462A42.582,42.582,0,0,1,42.232,84.466Zm.148-76.323A34.238,34.238,0,1,0,76.618,42.382,34.277,34.277,0,0,0,42.381,8.143Z" transform="translate(45 42)" fill="url(#linear-gradient)"/>
      </g>
    </g>
    <g id="Group_8812" data-name="Group 8812" transform="translate(9.942 -63)">
      <path id="Path_23071" data-name="Path 23071" d="M3.2,31.071A3.26,3.26,0,0,1,0,27.759V7.683A3.26,3.26,0,0,1,3.2,4.372H4.242V3.312A3.26,3.26,0,0,1,7.441,0H42.916a3.26,3.26,0,0,1,3.2,3.312V23.388a3.26,3.26,0,0,1-3.2,3.312H41.873v1.06a3.26,3.26,0,0,1-3.2,3.312ZM1.619,27.759A1.641,1.641,0,0,0,3.2,29.451H38.674a1.641,1.641,0,0,0,1.579-1.692V15.22H1.619ZM7.441,1.619A1.641,1.641,0,0,0,5.861,3.312v1.06H38.674a3.26,3.26,0,0,1,3.2,3.311v17.4h1.043A1.641,1.641,0,0,0,44.5,23.388V3.312a1.641,1.641,0,0,0-1.579-1.692ZM1.619,13.6H40.254V10.9H1.619ZM3.2,5.991A1.641,1.641,0,0,0,1.619,7.683v1.6H40.254v-1.6a1.641,1.641,0,0,0-1.579-1.692Z" transform="translate(896 914.794)" fill="#d0990f"/>
      <path id="Path_23072" data-name="Path 23072" d="M652.091,479.963a4.181,4.181,0,0,1-.866-.091,4.135,4.135,0,0,1-1.231-.477l-.04-.023-.04.023a4.137,4.137,0,0,1-1.231.477,4.167,4.167,0,1,1,1.231-7.674l.04.023.04-.023a4.165,4.165,0,1,1,2.1,7.765m0-6.714a2.548,2.548,0,0,0-.766,4.976l.054.015.03.008a2.546,2.546,0,1,0,.683-5m-4.272,0a2.547,2.547,0,1,0,.683,5l.03-.008.054-.015.1-.031-.058-.087a4.156,4.156,0,0,1,0-4.622l.058-.087-.1-.031a2.541,2.541,0,0,0-.766-.118" transform="translate(277.539 461.623)" fill="#d0990f"/>
      <rect id="Rectangle_309" data-name="Rectangle 309" width="5.186" height="1.619" transform="translate(901.269 933.253)" fill="#d0990f"/>
      <rect id="Rectangle_310" data-name="Rectangle 310" width="12.888" height="1.619" transform="translate(901.269 936.61)" fill="#d0990f"/>
      <rect id="Rectangle_311" data-name="Rectangle 311" width="11.223" height="1.619" transform="translate(901.269 939.966)" fill="#d0990f"/>
      <rect id="Rectangle_312" data-name="Rectangle 312" width="46.115" height="31.071" transform="translate(896 914.794)" fill="none"/>
    </g>
  </g>
</svg>
