<svg xmlns="http://www.w3.org/2000/svg" xmlns:xlink="http://www.w3.org/1999/xlink" width="174" height="174" viewBox="0 0 174 174">
  <defs>
    <filter id="Ellipse_1796" x="0" y="0" width="174" height="174" filterUnits="userSpaceOnUse">
      <feOffset dy="3" input="SourceAlpha"/>
      <feGaussianBlur stdDeviation="12" result="blur"/>
      <feFlood flood-opacity="0.078"/>
      <feComposite operator="in" in2="blur"/>
      <feComposite in="SourceGraphic"/>
    </filter>
    <linearGradient id="linear-gradient" x1="0.5" x2="0.5" y2="1" gradientUnits="objectBoundingBox">
      <stop offset="0" stop-color="#e2ab44"/>
      <stop offset="1" stop-color="#fee185"/>
    </linearGradient>
    <filter id="Subtraction_48" x="27" y="27" width="120.465" height="120.466" filterUnits="userSpaceOnUse">
      <feOffset dy="3" input="SourceAlpha"/>
      <feGaussianBlur stdDeviation="6" result="blur-2"/>
      <feFlood flood-opacity="0.102"/>
      <feComposite operator="in" in2="blur-2"/>
      <feComposite in="SourceGraphic"/>
    </filter>
  </defs>
  <g id="Group_8876" data-name="Group 8876" transform="translate(-468 -783)">
    <g id="Group_8815" data-name="Group 8815" transform="translate(-1246 -66)">
      <g transform="matrix(1, 0, 0, 1, 1714, 849)" filter="url(#Ellipse_1796)">
        <circle id="Ellipse_1796-2" data-name="Ellipse 1796" cx="51" cy="51" r="51" transform="translate(36 33)" fill="#fff"/>
      </g>
      <g transform="matrix(1, 0, 0, 1, 1714, 849)" filter="url(#Subtraction_48)">
        <path id="Subtraction_48-2" data-name="Subtraction 48" d="M42.232,84.466a42.582,42.582,0,0,1-8.511-.858,42.034,42.034,0,0,1-15.1-6.355A42.258,42.258,0,0,1,25.794,3.318,41.984,41.984,0,0,1,33.721.858a42.626,42.626,0,0,1,17.023,0,41.985,41.985,0,0,1,15.1,6.354,42.348,42.348,0,0,1,15.3,18.582,42.011,42.011,0,0,1,2.461,7.928,42.638,42.638,0,0,1,0,17.021,41.981,41.981,0,0,1-6.355,15.1,42.352,42.352,0,0,1-18.581,15.3,41.847,41.847,0,0,1-7.927,2.462A42.582,42.582,0,0,1,42.232,84.466Zm.148-76.323A34.238,34.238,0,1,0,76.618,42.382,34.277,34.277,0,0,0,42.381,8.143Z" transform="translate(45 42)" fill="url(#linear-gradient)"/>
      </g>
    </g>
    <g id="Group_8814" data-name="Group 8814" transform="translate(-1 -61.614)">
      <g id="Group_974" data-name="Group 974" transform="translate(-1192.359 100.945)">
        <g id="Smartphone" transform="translate(1734.359 803.669)">
          <path id="Path_25" data-name="Path 25" d="M142.813,8H123.933A3.938,3.938,0,0,0,120,11.933V52.839a3.938,3.938,0,0,0,3.933,3.933h18.879a3.938,3.938,0,0,0,3.933-3.933V11.933A3.938,3.938,0,0,0,142.813,8Zm-4.106,1.573-.472,2.36h-9.723l-.472-2.36Zm6.466,43.265a2.363,2.363,0,0,1-2.36,2.36H123.933a2.363,2.363,0,0,1-2.36-2.36V11.933a2.363,2.363,0,0,1,2.36-2.36h2.5l.66,3.3a.787.787,0,0,0,.771.632h11.013a.787.787,0,0,0,.771-.632l.66-3.3h2.5a2.363,2.363,0,0,1,2.36,2.36Z" transform="translate(-120 -8)" fill="#d0990f"/>
          <path id="Path_26" data-name="Path 26" d="M157.507,456h-4.72a.787.787,0,1,0,0,1.573h4.72a.787.787,0,1,0,0-1.573Z" transform="translate(-148.853 -411.948)" fill="#d0990f"/>
          <path id="Path_27" data-name="Path 27" d="M225.573,456h-.787a.787.787,0,0,0,0,1.573h.787a.787.787,0,0,0,0-1.573Z" transform="translate(-213.774 -411.948)" fill="#d0990f"/>
        </g>
      </g>
      <g id="Group_8258" data-name="Group 8258" transform="translate(6 23)">
        <g id="Ellipse_1755" data-name="Ellipse 1755" transform="translate(551 896)" fill="#fff" stroke="#d0990f" stroke-width="1.5">
          <circle cx="10.5" cy="10.5" r="10.5" stroke="none"/>
          <circle cx="10.5" cy="10.5" r="9.75" fill="none"/>
        </g>
        <path id="Path_23065" data-name="Path 23065" d="M781.5,92.708a.549.549,0,0,1-.546-.546V85.335a.549.549,0,0,1,.546-.546h10.861a.549.549,0,0,1,.544.546v6.827a.549.549,0,0,1-.545.546Zm2.637-3.962a.158.158,0,0,1,.123.258l-2.638,3.258-.1.122.15.008h10.677l-.1-.122-2.658-3.281a.157.157,0,0,1-.024-.1.159.159,0,0,1,.157-.142.158.158,0,0,1,.123.059l2.744,3.391V85.321l-5.069,3.8a1.035,1.035,0,0,1-1.185,0l-5.068-3.8v6.874l2.745-3.391A.158.158,0,0,1,784.14,88.745Zm2.391.126a.724.724,0,0,0,.8,0l5.023-3.769H781.512Z" transform="translate(-225.163 817.751)" fill="#d0990f" stroke="#d0990f" stroke-linecap="square" stroke-linejoin="round" stroke-width="0.7"/>
      </g>
    </g>
  </g>
</svg>
