<svg xmlns="http://www.w3.org/2000/svg" xmlns:xlink="http://www.w3.org/1999/xlink" width="56.328" height="70.524" viewBox="0 0 56.328 70.524">
  <defs>
    <clipPath id="clip-path">
      <rect id="Rectangle_2056" data-name="Rectangle 2056" width="56.328" height="70.524" fill="none"/>
    </clipPath>
    <clipPath id="clip-path-2">
      <path id="Path_23119" data-name="Path 23119" d="M.61,19.405a1.772,1.772,0,1,0,1.7-1.287,1.774,1.774,0,0,0-1.7,1.287" transform="translate(-0.541 -18.118)" fill="none"/>
    </clipPath>
    <linearGradient id="linear-gradient" x1="-0.064" y1="8.703" x2="0.279" y2="8.703" gradientUnits="objectBoundingBox">
      <stop offset="0" stop-color="#e2ab44"/>
      <stop offset="1" stop-color="#fee185"/>
    </linearGradient>
    <linearGradient id="linear-gradient-2" x1="0.5" y1="0" x2="0.5" y2="1" xlink:href="#linear-gradient"/>
    <clipPath id="clip-path-4">
      <rect id="Rectangle_2060" data-name="Rectangle 2060" width="36.81" height="60.822" fill="none"/>
    </clipPath>
  </defs>
  <g id="Group_8715" data-name="Group 8715" transform="translate(-1363 -991)">
    <g id="Group_8671" data-name="Group 8671" transform="translate(1363 991)">
      <g id="Group_8670" data-name="Group 8670" clip-path="url(#clip-path)">
        <path id="Path_23109" data-name="Path 23109" d="M2.786,10.6a.285.285,0,0,1-.205-.087L1.471,9.364a.283.283,0,0,1,0-.4.286.286,0,0,1,.4,0l0,0L2.991,10.11a.286.286,0,0,1-.205.485Z" transform="translate(0.84 5.371)" fill="#231f20"/>
        <path id="Path_23110" data-name="Path 23110" d="M3.032,10.6a.286.286,0,0,1-.205-.485L3.937,8.966a.286.286,0,0,1,.414.395l0,0L3.237,10.509a.292.292,0,0,1-.205.087" transform="translate(1.661 5.37)" fill="#231f20"/>
        <path id="Path_23111" data-name="Path 23111" d="M3.032,10.338a.285.285,0,0,1,.205.087l1.109,1.144a.285.285,0,0,1-.409.4L2.826,10.823a.286.286,0,0,1,.205-.485Z" transform="translate(1.661 6.254)" fill="#231f20"/>
        <path id="Path_23112" data-name="Path 23112" d="M2.784,10.338a.286.286,0,0,1,.205.485L1.879,11.967a.285.285,0,0,1-.409-.4l1.109-1.144a.292.292,0,0,1,.205-.087" transform="translate(0.841 6.254)" fill="#231f20"/>
        <path id="Path_23113" data-name="Path 23113" d="M31.139,36.616a.29.29,0,0,1-.21-.09l-1.14-1.173a.293.293,0,0,1,.419-.411l0,0,1.138,1.173a.291.291,0,0,1-.006.414.285.285,0,0,1-.2.083" transform="translate(17.971 21.085)" fill="#231f20"/>
        <path id="Path_23114" data-name="Path 23114" d="M31.392,36.616a.293.293,0,0,1-.21-.5l1.138-1.173a.293.293,0,0,1,.424.406l0,0L31.6,36.526a.29.29,0,0,1-.21.09" transform="translate(18.813 21.085)" fill="#231f20"/>
        <path id="Path_23115" data-name="Path 23115" d="M31.391,36.352a.3.3,0,0,1,.21.088l1.14,1.173a.294.294,0,0,1-.422.409L31.181,36.85a.294.294,0,0,1,.008-.416.287.287,0,0,1,.2-.082" transform="translate(18.814 21.991)" fill="#231f20"/>
        <path id="Path_23116" data-name="Path 23116" d="M31.139,36.352a.294.294,0,0,1,.21.5l-1.138,1.173a.294.294,0,1,1-.422-.409l1.14-1.173a.3.3,0,0,1,.21-.088" transform="translate(17.971 21.991)" fill="#231f20"/>
        <path id="Path_23117" data-name="Path 23117" d="M33.178,30a1.425,1.425,0,1,1,1.062,1.713A1.425,1.425,0,0,1,33.178,30" transform="translate(20.049 17.481)" fill="#f7d278"/>
        <path id="Path_23118" data-name="Path 23118" d="M34.349,31.63a1.643,1.643,0,1,1,1.643-1.643,1.643,1.643,0,0,1-1.643,1.643m0-2.85a1.207,1.207,0,1,0,1.207,1.209v0a1.209,1.209,0,0,0-1.207-1.207" transform="translate(19.786 17.146)" fill="#231f20"/>
      </g>
    </g>
    <g id="Group_8673" data-name="Group 8673" transform="translate(1363.869 1020.079)">
      <g id="Group_8672" data-name="Group 8672" clip-path="url(#clip-path-2)">
        <rect id="Rectangle_2057" data-name="Rectangle 2057" width="4.692" height="4.829" transform="translate(-1.191 3.468) rotate(-74.042)" fill="url(#linear-gradient)"/>
      </g>
    </g>
    <g id="Group_8675" data-name="Group 8675" transform="translate(1363 991)">
      <g id="Mask_Group_8674" data-name="Mask Group 8674" clip-path="url(#clip-path)">
        <path id="Path_23120" data-name="Path 23120" d="M2.046,21.522a2.047,2.047,0,1,1,2.046-2.048,2.047,2.047,0,0,1-2.046,2.048m0-3.55a1.5,1.5,0,1,0,1.5,1.5,1.5,1.5,0,0,0-1.5-1.5" transform="translate(0 10.543)" fill="#231f20"/>
        <path id="Path_23121" data-name="Path 23121" d="M36.342,22.745H32.62a.635.635,0,0,1,0-1.27h3.722a.635.635,0,1,1,0,1.27" transform="translate(19.35 12.991)" fill="#231f20"/>
        <path id="Path_23122" data-name="Path 23122" d="M31.364,22.745H30.009a.635.635,0,0,1,0-1.27h1.355a.635.635,0,1,1,0,1.27" transform="translate(17.771 12.991)" fill="#231f20"/>
        <path id="Path_23123" data-name="Path 23123" d="M12.573,44.42H8.851a.635.635,0,0,1,0-1.27h3.722a.635.635,0,1,1,0,1.27" transform="translate(4.971 26.104)" fill="#231f20"/>
        <path id="Path_23124" data-name="Path 23124" d="M7.594,44.42H6.238a.635.635,0,0,1,0-1.27H7.594a.635.635,0,1,1,0,1.27" transform="translate(3.39 26.104)" fill="#231f20"/>
        <path id="Path_23125" data-name="Path 23125" d="M30.6,13.966a.187.187,0,0,1-.175-.122A1.84,1.84,0,0,0,29.08,12.5a.188.188,0,0,1-.106-.246.183.183,0,0,1,.106-.1A1.84,1.84,0,0,0,30.427,10.8a.188.188,0,0,1,.351,0,1.84,1.84,0,0,0,1.347,1.347.188.188,0,0,1,.106.244.191.191,0,0,1-.106.106,1.84,1.84,0,0,0-1.347,1.347.188.188,0,0,1-.177.122m-.973-1.645a.973.973,0,1,0,.974-.974.975.975,0,0,0-.974.974" transform="translate(17.52 6.46)" fill="#231f20"/>
        <path id="Path_23126" data-name="Path 23126" d="M29.258,14.965a.117.117,0,0,1-.109-.074,1.126,1.126,0,0,0-.827-.828.116.116,0,0,1-.069-.149.115.115,0,0,1,.069-.067,1.131,1.131,0,0,0,.827-.828.117.117,0,0,1,.218,0,1.131,1.131,0,0,0,.827.828.115.115,0,0,1,.069.149.119.119,0,0,1-.069.067,1.126,1.126,0,0,0-.827.828.117.117,0,0,1-.109.074m-.6-1.011a.6.6,0,0,0,1.2.04v-.04a.6.6,0,0,0-1.2-.04v.04" transform="translate(17.088 7.83)" fill="#231f20"/>
        <path id="Path_23127" data-name="Path 23127" d="M15.067,4.484a.259.259,0,0,1-.241-.167A2.5,2.5,0,0,0,12.99,2.483a.258.258,0,0,1,0-.481A2.5,2.5,0,0,0,14.826.165a.258.258,0,0,1,.481,0A2.5,2.5,0,0,0,17.144,2a.258.258,0,0,1,.148.332.265.265,0,0,1-.148.149,2.5,2.5,0,0,0-1.836,1.834.257.257,0,0,1-.241.167M13.74,2.242A1.327,1.327,0,1,0,15.067.915,1.327,1.327,0,0,0,13.74,2.242" transform="translate(7.759 0)" fill="#231f20"/>
        <path id="Path_23128" data-name="Path 23128" d="M11.035,6.216a1.183,1.183,0,1,1,1.183-1.183,1.183,1.183,0,0,1-1.183,1.183m0-1.669a.487.487,0,1,0,.488.488.488.488,0,0,0-.488-.488" transform="translate(5.96 2.329)" fill="#231f20"/>
        <path id="Path_23129" data-name="Path 23129" d="M6.488,25.3a1.183,1.183,0,1,1,1.183-1.183A1.183,1.183,0,0,1,6.488,25.3m0-1.669a.486.486,0,1,0,.486.486.487.487,0,0,0-.486-.486Z" transform="translate(3.209 13.871)" fill="#231f20"/>
        <path id="Path_23130" data-name="Path 23130" d="M26.246,43.227a1.593,1.593,0,1,1,1.594-1.592,1.593,1.593,0,0,1-1.594,1.592m0-2.489a.9.9,0,1,0,.9.9.9.9,0,0,0-.9-.9" transform="translate(14.913 24.223)" fill="#231f20"/>
      </g>
    </g>
    <path id="Path_23131" data-name="Path 23131" d="M21.466,6.819v0a4.805,4.805,0,0,0-4.711,3.943,2.739,2.739,0,0,0,1.313,3.019l5.537,3.2a2.762,2.762,0,0,1,1.319,1.765,15.387,15.387,0,0,1-.324,8.006,16.461,16.461,0,0,1-5.693,7.4l-3.324,2.945-.12.114-.926.928a2.76,2.76,0,0,0-.714,2.675,2.755,2.755,0,0,1-.321,2.175L12.38,44.8c-.3.483-.369.486-.677.963-1.488,2.293-5.726,3.277-2.669,10.216,2.677,6.072,12.183,6.982,17.855,6.954a2.76,2.76,0,0,0,2.457-3.99c-.958-1.929-1.95-3.959-2.091-4.386a22.323,22.323,0,0,1-.071-4.194c.037-.932.154-.714.958-1.192a118.03,118.03,0,0,0,10.514-7.514c1.563-1.432-.274-4.662-1.316-5.945a2.719,2.719,0,0,0-.78-.658l-1.074-.613a2.763,2.763,0,0,1-1.361-2.862l.79-4.666a2.833,2.833,0,0,0,.035-.351c.071-1.706.432-14.782-4.089-18.419C28.693,6.4,27.648,5.9,26.676,5.9c-1.192,0-2.277.762-5.21.92" transform="translate(1368.809 994.568)" fill="url(#linear-gradient-2)"/>
    <g id="Group_8679" data-name="Group 8679" transform="translate(1372.697 997.448)">
      <g id="Group_8678" data-name="Group 8678" clip-path="url(#clip-path-4)">
        <path id="Path_23132" data-name="Path 23132" d="M12.818,38.564a1.05,1.05,0,0,1-.494-.124,6.313,6.313,0,0,1-3.276-6.482c.372-2.228,1.9-4.211,4.67-6.088.493-.332,1.061-.687,1.658-1.058l.517-.321a9.124,9.124,0,0,0,3.947-5.054,3.142,3.142,0,0,0,.175-1.578,1.053,1.053,0,1,1,2.082-.318,5.182,5.182,0,0,1-.265,2.578A11.173,11.173,0,0,1,17,26.283l-.512.318c-.573.358-1.117.695-1.591,1.014-2.268,1.536-3.5,3.064-3.772,4.67a4.2,4.2,0,0,0,2.184,4.295,1.054,1.054,0,0,1-.494,1.984" transform="translate(-4.264 3.624)"/>
        <path id="Path_23133" data-name="Path 23133" d="M26.233,50.546c-2.056,0-4.112-.091-6.153-.276-5.834-.591-10.541-2.215-12-4.142A10.634,10.634,0,0,1,6,38.541c.443-3.852,3.78-7.7,5.986-10.246a1.054,1.054,0,1,1,1.592,1.38c-2.038,2.351-5.117,5.9-5.486,9.1a8.527,8.527,0,0,0,1.668,6.081c.916,1.21,4.828,2.74,10.522,3.314a66.413,66.413,0,0,0,11.917,0,1.054,1.054,0,0,1,.189,2.1c-2.042.185-4.1.276-6.153.276" transform="translate(-6.108 10.45)"/>
        <path id="Path_23134" data-name="Path 23134" d="M24.266,51.14a1.047,1.047,0,0,1-.83-.4,19.154,19.154,0,0,1-2.544-4.309,16.525,16.525,0,0,1-.624-12.716,12.052,12.052,0,0,1,.491-1.168l3.013-5.834a1.053,1.053,0,1,1,1.871.966l-3,5.813a9.345,9.345,0,0,0-.39.932,14.458,14.458,0,0,0,.562,11.143,17.218,17.218,0,0,0,2.281,3.874,1.053,1.053,0,0,1-.828,1.7" transform="translate(1.971 9.365)"/>
        <path id="Path_23135" data-name="Path 23135" d="M16.793,23.09c-2.3,0-3.244-.871-3.566-1.294l-.053-.075a6.068,6.068,0,0,1-.949-3.362c-.014-.3-.022-.6-.022-.905a16.465,16.465,0,0,1,1.554-6.967,1.053,1.053,0,0,1,1.907.9,14.332,14.332,0,0,0-1.353,6.072c0,.279.006.559.021.836l0,.039v.039a3.962,3.962,0,0,0,.586,2.172c.183.188,1.01.6,2.854.385l.25-.029c.761-.087,1.478-.169,2.218-.31a1.053,1.053,0,0,1,.4,2.069c-.819.156-1.574.242-2.375.334l-.249.029a10.6,10.6,0,0,1-1.22.074" transform="translate(-2.315 -0.47)"/>
        <path id="Path_23136" data-name="Path 23136" d="M27.134,30.29a1.048,1.048,0,0,1-.374-.069A32.227,32.227,0,0,1,19.326,26.2,1.054,1.054,0,1,1,20.563,24.5a30.031,30.031,0,0,0,6.946,3.756,1.054,1.054,0,0,1-.376,2.038" transform="translate(1.731 8.251)"/>
        <path id="Path_23137" data-name="Path 23137" d="M24.511,44.531a1.053,1.053,0,0,1-.481-1.99C27.09,40.966,34.3,35.487,36.744,33.2a.991.991,0,0,0,.12-1.3c-1.635-2.269-2.258-2.971-10.216-9.362a1.311,1.311,0,0,0-1.8.119,12.838,12.838,0,0,1-4.54,3.553,7.212,7.212,0,0,1-7.6-1.6,1.053,1.053,0,0,1,1.554-1.422,5.137,5.137,0,0,0,5.34,1.042,11.389,11.389,0,0,0,3.69-2.99,3.418,3.418,0,0,1,4.65-.364c7.859,6.314,8.81,7.267,10.633,9.793a3.106,3.106,0,0,1-.387,4.073c-2.589,2.422-9.938,8.006-13.193,9.678a1.04,1.04,0,0,1-.481.117" transform="translate(-2.178 5.727)"/>
        <path id="Path_23138" data-name="Path 23138" d="M26.373,31.269c-.022,0-.043,0-.066,0a1.054,1.054,0,0,1-.987-1.117c.542-8.81-4.765-13.008-9.312-14.977l-.441-.188c-1.541-.65-3.459-1.457-3.982-3.748a4.435,4.435,0,0,1,.12-2.374,5.316,5.316,0,0,1,1.194-2,5.706,5.706,0,0,1,6.852-.952,11.517,11.517,0,0,1,4.906,4.7,1.054,1.054,0,1,1-1.839,1.029,9.471,9.471,0,0,0-4.056-3.871,3.61,3.61,0,0,0-4.353.562,3.184,3.184,0,0,0-.7,1.189,2.313,2.313,0,0,0-.064,1.249c.262,1.149,1.212,1.624,2.744,2.271l.461.2c7.3,3.163,11.058,9.216,10.577,17.04a1.052,1.052,0,0,1-1.05.989" transform="translate(-2.754 -3.314)"/>
        <path id="Path_23139" data-name="Path 23139" d="M29.594,35.6a1.034,1.034,0,0,1-.308-.047,1.053,1.053,0,0,1-.7-1.314c.043-.141,4.253-14.181.122-23.073a10.04,10.04,0,0,0-4.616-4.478c-.148-.077-.263-.128-.379-.18a6.463,6.463,0,0,0-6.572.95l-.607.48a1.053,1.053,0,1,1-1.308-1.652l.6-.472a8.562,8.562,0,0,1,8.718-1.244c.175.077.334.149.49.231A12.149,12.149,0,0,1,30.6,10.249c4.487,9.662.183,24,0,24.61a1.053,1.053,0,0,1-1.006.745" transform="translate(-0.727 -4.085)"/>
        <path id="Path_23140" data-name="Path 23140" d="M12.438,40.434c.382.318.786.655,1.21,1.019a.667.667,0,0,0,.87,0q.638-.546,1.209-1.019c2.239-1.865,3.711-3.1,3.711-5a3.069,3.069,0,0,0-2.948-3.186l-.063,0a3.214,3.214,0,0,0-2.345,1.008,3.217,3.217,0,0,0-2.345-1.008,3.067,3.067,0,0,0-3.013,3.122c0,.022,0,.043,0,.066,0,1.908,1.475,3.141,3.709,5Zm-.7-6.85a2.07,2.07,0,0,1,1.745,1.079.672.672,0,0,0,.592.366h0a.677.677,0,0,0,.6-.366,2.07,2.07,0,0,1,1.748-1.079,1.727,1.727,0,0,1,1.679,1.773c0,.024,0,.048,0,.072,0,1.284-1.215,2.3-3.231,3.977-.252.21-.515.43-.786.66q-.409-.344-.788-.66c-2.014-1.68-3.231-2.7-3.231-3.977a1.727,1.727,0,0,1,1.6-1.842c.024,0,.047,0,.071,0Z" transform="translate(-4.42 13.058)"/>
      </g>
    </g>
  </g>
</svg>
