<svg xmlns="http://www.w3.org/2000/svg" xmlns:xlink="http://www.w3.org/1999/xlink" width="56.589" height="48.247" viewBox="0 0 56.589 48.247">
  <defs>
    <linearGradient id="linear-gradient" x1="0.5" x2="0.5" y2="1" gradientUnits="objectBoundingBox">
      <stop offset="0" stop-color="#e2ab44"/>
      <stop offset="1" stop-color="#fee185"/>
    </linearGradient>
  </defs>
  <g id="Group_8738" data-name="Group 8738" transform="translate(-1377.999 -2540.887)">
    <path id="Path_23172" data-name="Path 23172" d="M5624.255,9796.567h0l-1.707,5.037c-.1.1-4.025.8-3.751.937a13.95,13.95,0,0,1,2.546,2.768c.034.377-2.1,5.848-2,5.951s5.389-2.437,5.492-2.437,4.772,2.438,4.772,2.438-.858-5.492-.618-5.732,3.536-3.742,3.536-3.742l-5.629-1.579-1.579-2.712-.687-1.407" transform="translate(-4199 -7232)" fill="url(#linear-gradient)"/>
    <path id="Path_23171" data-name="Path 23171" d="M5603.494,9800.268c.268,0,9.729,9.506-4.15,19.681a11.8,11.8,0,0,0,4.15,0s4.15-1.741,4.284-1.83,2.455-4.061,2.455-4.061l1.2-4.82-1.428-4.418-2.544-3.034Z" transform="translate(-4199 -7232)" fill="url(#linear-gradient)"/>
    <path id="Subtraction_39" data-name="Subtraction 39" d="M-4195.207-7200.763v0l1.9-6.28-2.726-2.55c.012,0,1.15.027,2.012.027.508,0,.828-.009.952-.027.391-.057,2.273-3.829,2.486-4.259l0-.008v-7.527l-.831-.416c-.026.022-2.787,2.317-2.962,2.608a33,33,0,0,1-2.134,3.022l-.019,0a22.238,22.238,0,0,1-2.471-1.01l.89-3.26,3.735-4.741,7.409-4.387,8.83-2.43,13.515.416,11.2,3.2,7.291,5.454,2.9,5.037-.025.019a14.959,14.959,0,0,1-2.346,1.464c-.306,0-1.485-1.192-1.6-1.482-.1-.242-3.079-3.057-4.352-4.259-.327-.309-.479-.453-.509-.482-.176-.176-9.155-4.345-9.246-4.387l-10.017-1.363c-.122.014-12.212,1.363-12.447,1.363s-6.4,4.05-6.459,4.091l.418,2.341h-.312v5l1.324.662.522,2.919.064.019c1.433.425,6.117,1.826,6.221,1.98a15.292,15.292,0,0,1-2.117,2l-.01.008-.013.011a16.608,16.608,0,0,0-1.952,1.828c0,.186.4,3.377.637,5.263l.016.129c-.051-.024-4.98-2.546-5.156-2.546s-4.159,2.283-4.614,2.543l-.009,0Z" transform="translate(5577.619 9779.09)" fill="url(#linear-gradient)"/>
    <path id="Path_23168" data-name="Path 23168" d="M153.978,21.967c3.746,1.083,2.683-2.045,6.97-5.414v4.671c-.558.119-2.231,4.161-2.542,4.6l-4.444.646a1.318,1.318,0,0,0-.725,2.231l3.224,3.16L155.7,36.29a1.318,1.318,0,0,0,1.9,1.379l4-2.09,3.975,2.09a1.324,1.324,0,0,0,1.9-1.379l-.751-4.451,3.216-3.135c1.9-2.625-3.208-2.458-4.653-2.808a.966.966,0,0,1-.861-.673,28.151,28.151,0,0,0-1.828-3.587c-.815-1.636-.187-3.739-.373-5.535,2.871-4.307,12.838-5.871,17.974-5.928q0,8.2,0,16.4c-.766-.082-1.476-.447-2.237-.565-.969-.15-2.835.746-1.524,1.795a9.6,9.6,0,0,1,2.7,3.423A9.767,9.767,0,0,1,172.1,44.888c-3.173,1.9,3.219,3.187,4.551,3.026,11.434.075,15.118-15.856,4.826-20.8V10.178c8.742.159,14.483,2.81,18.042,5.442v6.527c-.849.093-2.325,4.117-2.755,4.7l-4.444.646a1.318,1.318,0,0,0-.725,2.231l3.224,3.16-.759,4.426a1.318,1.318,0,0,0,1.9,1.379l4-2.09c.393.147,4.227,2.386,4.584,2.241a1.318,1.318,0,0,0,1.289-1.531l-.751-4.451,3.215-3.135a1.308,1.308,0,0,0-.725-2.231L203.1,26.83a48.864,48.864,0,0,0-2.309-4.441V16.638c3.884,3.214,2.829,4.339,5.147,5.474,9.423.241-3.583-16.967-24.431-16.891V1.28h4.984a.64.64,0,0,0,0-1.279H174.629a.64.64,0,0,0,0,1.279h5.6V5.213c-21.019.381-31.042,14.189-26.254,16.755m9.622,4.41c.312,1.1,4.6,1.072,5.429,1.362l.016.049c-4.419,4.32-3.861,2.641-2.833,8.718l-.042.03c-5.473-2.867-3.705-2.856-9.167,0l-.042-.03c1.035-6.092,1.572-4.406-2.833-8.718l.016-.049c6.17-.909,4.647.137,7.442-5.4.045-.015,1.988,4.029,2.013,4.043m21.822,6.487c3.8,7.568-4.523,16.448-12.294,13.107,8.155-1.865,11.011-13.1,4.729-18.625a9.668,9.668,0,0,1,7.565,5.518M201.956,27.4c.312,1.1,4.6,1.072,5.429,1.362l.016.049c-4.418,4.32-3.861,2.641-2.833,8.718l-.042.03c-5.473-2.867-3.705-2.856-9.167,0l-.042-.03c1.036-6.091,1.571-4.406-2.833-8.718l.016-.049c6.17-.909,4.647.138,7.442-5.4.044-.015,1.988,4.029,2.013,4.043m-47.97-8.178c7.574-16.94,46.217-16.287,53.755-.029a1.2,1.2,0,0,1-2.128,1.109c-4.011-10.882-38.08-18.8-49.471-.025a1.2,1.2,0,0,1-2.156-1.054" transform="translate(1225.375 2541.037)" stroke="#000" stroke-width="0.3"/>
  </g>
</svg>
