<svg xmlns="http://www.w3.org/2000/svg" xmlns:xlink="http://www.w3.org/1999/xlink" width="58.365" height="62.934" viewBox="0 0 58.365 62.934">
  <defs>
    <linearGradient id="linear-gradient" x1="0.5" x2="0.5" y2="1" gradientUnits="objectBoundingBox">
      <stop offset="0" stop-color="#e2ab44"/>
      <stop offset="1" stop-color="#fee185"/>
    </linearGradient>
  </defs>
  <g id="Group_8730" data-name="Group 8730" transform="translate(-1326.635 -1787.59)">
    <circle id="Ellipse_1772" data-name="Ellipse 1772" cx="6" cy="6" r="6" transform="translate(1329 1838)" fill="url(#linear-gradient)"/>
    <circle id="Ellipse_1773" data-name="Ellipse 1773" cx="6" cy="6" r="6" transform="translate(1363 1838)" fill="url(#linear-gradient)"/>
    <path id="Path_23167" data-name="Path 23167" d="M5548.384,9026.7s-15.626,4.3-15.626,17.529,1.8,15.025,1.8,15.025l18.431,1.1,12.021-1.1,2.3-1.3v-11.52l-5.509,4.808-2.5,1.2-1.2-2.3,5.208-5.91-10.818-.5-.9-2.6-3.205-1.3Z" transform="translate(-4199 -7232)" fill="url(#linear-gradient)"/>
    <g id="Group_8729" data-name="Group 8729" transform="translate(1326.635 1787.59)">
      <path id="Path_71" data-name="Path 71" d="M63.915,422.146A3.355,3.355,0,1,0,60.56,425.5,3.359,3.359,0,0,0,63.915,422.146Zm-4.869,0a1.514,1.514,0,1,1,1.514,1.514A1.516,1.516,0,0,1,59.046,422.146Z" transform="translate(-52.458 -367.314)"/>
      <path id="Path_72" data-name="Path 72" d="M331.78,425.5a3.355,3.355,0,1,0-3.355-3.355A3.359,3.359,0,0,0,331.78,425.5Zm0-4.869a1.514,1.514,0,1,1-1.514,1.514A1.516,1.516,0,0,1,331.78,420.632Z" transform="translate(-290.34 -367.314)"/>
      <path id="Path_73" data-name="Path 73" d="M76.947,14.069a2.781,2.781,0,0,0-2.78-2.642l-3.051-.016a7.406,7.406,0,0,0-5.323,2.271l-9.537,9.948H46.438V10.281a.921.921,0,0,0-1.841,0V20.619A5.118,5.118,0,0,0,42.221,19.5V3.026a1.188,1.188,0,0,1,2.376,0V6.572a.921.921,0,1,0,1.841,0V3.026a3.029,3.029,0,0,0-6.058,0V3.6A21.209,21.209,0,0,0,22.27,24.551V33.23A8.579,8.579,0,0,0,30.839,41.8h.043l-2.846,5.046a8.084,8.084,0,0,0-6.4,1.652.921.921,0,1,0,1.148,1.439,6.193,6.193,0,0,1,3.9-1.364,6.254,6.254,0,1,1-5.825,3.962.921.921,0,1,0-1.712-.677,8.1,8.1,0,0,0,14.736,6.687,5.838,5.838,0,0,0,4.19,1.757h10.6a5.849,5.849,0,0,0,4.166-1.735,8.1,8.1,0,1,0,5.874-11.727l-2.923-5.183a10.846,10.846,0,0,0,5.026-2.222.921.921,0,1,0-1.142-1.444,9.041,9.041,0,0,1-5.664,1.967H30.839a6.735,6.735,0,0,1-6.728-6.727V25.472H36.249a5.1,5.1,0,0,0,.272.962.921.921,0,0,0,1.714-.674,3.288,3.288,0,1,1,2.179,1.968.921.921,0,0,0-.495,1.774,5.139,5.139,0,0,0,6.436-4.03H54.49l-3.619,3.775a2.755,2.755,0,1,0,3.972,3.818l6.875-7.153a3.008,3.008,0,0,1,1.43,2.547V30.82a9.122,9.122,0,0,1-1.295,4.691.921.921,0,1,0,1.579.947,10.964,10.964,0,0,0,1.557-5.638V28.459a4.862,4.862,0,0,0-1.976-3.894l6.322-6.578a3.51,3.51,0,0,1,2.521-1.074l2.311.024a2.771,2.771,0,0,0,2.78-2.869ZM33,41.8h2.114l-3.657,6.485a8.1,8.1,0,0,0-1.6-.911Zm16.534,0L53.9,49.543a8.127,8.127,0,0,0-.876,1.227H33.695a8.135,8.135,0,0,0-.854-1.2l4.382-7.77H49.53ZM48.674,58.46h-10.6a4.005,4.005,0,0,1-3.458-1.966,8.081,8.081,0,0,0-.14-3.882H52.237a8.066,8.066,0,0,0-.13,3.923A4.014,4.014,0,0,1,48.674,58.46Zm17.613-3.628a6.261,6.261,0,1,1-6.261-6.261A6.268,6.268,0,0,1,66.287,54.832Zm-11-6.567L51.643,41.8h2.114l3.137,5.562a8.1,8.1,0,0,0-1.6.9ZM40.38,19.5a5.09,5.09,0,0,0-.7.18L33.3,8.087A19.362,19.362,0,0,1,40.38,5.464V19.5ZM29.764,10.883a19.183,19.183,0,0,1,2.014-1.752l6.287,11.442a5.184,5.184,0,0,0-.691.681l-10.79-6.148A19.219,19.219,0,0,1,29.764,10.883Zm-4,5.874,10.7,6.095a5.092,5.092,0,0,0-.206.779H24.134A19.457,19.457,0,0,1,25.762,16.757Zm49.091-1.942a.912.912,0,0,1-.669.281l-2.273-.024a5.374,5.374,0,0,0-3.9,1.639L53.515,31.789A.913.913,0,1,1,52.2,30.522L67.121,14.957a5.556,5.556,0,0,1,3.994-1.7l3.037.016a.951.951,0,0,1,.954.875A.907.907,0,0,1,74.853,14.816Z" transform="translate(-18.587)"/>
    </g>
  </g>
</svg>
