<svg id="Group_5008" data-name="Group 5008" xmlns="http://www.w3.org/2000/svg" xmlns:xlink="http://www.w3.org/1999/xlink" width="1920" height="128.65" viewBox="0 0 1920 128.65">
  <defs>
    <clipPath id="clip-path">
      <rect id="Rectangle_281" data-name="Rectangle 281" width="1920" height="128.65" fill="#fff"/>
    </clipPath>
  </defs>
  <g id="Group_5007" data-name="Group 5007" clip-path="url(#clip-path)">
    <path id="Path_362" data-name="Path 362" d="M0,0V128.65H1920V65.31c-100.655,15.98-210.81,28.39-328.582,36.84-2.333.18-4.675.34-7.017.5h6.607c-237.567,17.06-506.077,18.05-789.973,0h8.1c-2.673-.16-5.356-.33-8.028-.5q-21.653-1.365-43.405-2.9C485.155,80.15,228.238,45.58,0,0" fill="#fff"/>
    <path id="Path_363" data-name="Path 363" d="M0,0V128.65H1920V65.31c-100.655,15.98-210.81,28.39-328.582,36.84-2.333.18-4.675.34-7.017.5h6.607c-237.567,17.06-506.077,18.05-789.973,0h8.1c-2.673-.16-5.356-.33-8.028-.5q-21.653-1.365-43.405-2.9C485.155,80.15,228.238,45.58,0,0" fill="#fff"/>
  </g>
</svg>
