<svg xmlns="http://www.w3.org/2000/svg" xmlns:xlink="http://www.w3.org/1999/xlink" width="104" height="103" viewBox="0 0 104 103">
  <defs>
    <filter id="Ellipse_76" x="0" y="0" width="104" height="103" filterUnits="userSpaceOnUse">
      <feOffset dy="3" input="SourceAlpha"/>
      <feGaussianBlur stdDeviation="3" result="blur"/>
      <feFlood flood-opacity="0.161"/>
      <feComposite operator="in" in2="blur"/>
      <feComposite in="SourceGraphic"/>
    </filter>
  </defs>
  <g id="Group_4837" data-name="Group 4837" transform="translate(-653 -538)">
    <g transform="matrix(1, 0, 0, 1, 653, 538)" filter="url(#Ellipse_76)">
      <ellipse id="Ellipse_76-2" data-name="Ellipse 76" cx="43" cy="42.5" rx="43" ry="42.5" transform="translate(9 6)" fill="#fff"/>
    </g>
    <g id="coupon_1_" data-name="coupon (1)" transform="translate(678.548 571.419)">
      <g id="Group_43" data-name="Group 43" transform="translate(16.602 17.81)">
        <g id="Group_42" data-name="Group 42" transform="translate(0 0)">
          <rect id="Rectangle_18" data-name="Rectangle 18" width="1.384" height="2.767" fill="#d0990f"/>
        </g>
      </g>
      <g id="Group_45" data-name="Group 45" transform="translate(16.602 21.96)">
        <g id="Group_44" data-name="Group 44" transform="translate(0 0)">
          <rect id="Rectangle_19" data-name="Rectangle 19" width="1.384" height="1.384" transform="translate(0 0)" fill="#d0990f"/>
        </g>
      </g>
      <g id="Group_47" data-name="Group 47" transform="translate(16.602 24.727)">
        <g id="Group_46" data-name="Group 46" transform="translate(0 0)">
          <rect id="Rectangle_20" data-name="Rectangle 20" width="1.384" height="1.384" fill="#d0990f"/>
        </g>
      </g>
      <g id="Group_49" data-name="Group 49" transform="translate(16.602 13.659)">
        <g id="Group_48" data-name="Group 48" transform="translate(0 0)">
          <rect id="Rectangle_21" data-name="Rectangle 21" width="1.384" height="2.767" transform="translate(0 0)" fill="#d0990f"/>
        </g>
      </g>
      <g id="Group_51" data-name="Group 51" transform="translate(16.602 10.892)">
        <g id="Group_50" data-name="Group 50" transform="translate(0 0)">
          <rect id="Rectangle_22" data-name="Rectangle 22" width="1.384" height="1.384" transform="translate(0 0)" fill="#d0990f"/>
        </g>
      </g>
      <g id="Group_53" data-name="Group 53" transform="translate(16.602 8.125)">
        <g id="Group_52" data-name="Group 52" transform="translate(0 0)">
          <rect id="Rectangle_23" data-name="Rectangle 23" width="1.384" fill="#d0990f"/>
        </g>
      </g>
      <g id="Group_55" data-name="Group 55" transform="translate(16.602 3.974)">
        <g id="Group_54" data-name="Group 54" transform="translate(0 0)">
          <rect id="Rectangle_24" data-name="Rectangle 24" width="1.384" height="1.384" fill="#d0990f"/>
        </g>
      </g>
      <g id="Group_57" data-name="Group 57" transform="translate(4.151 3.974)">
        <g id="Group_56" data-name="Group 56" transform="translate(0 0)">
          <rect id="Rectangle_25" data-name="Rectangle 25" width="1.384" height="1.384" fill="#d0990f"/>
        </g>
      </g>
      <g id="Group_59" data-name="Group 59" transform="translate(48.424 3.974)">
        <g id="Group_58" data-name="Group 58" transform="translate(0 0)">
          <rect id="Rectangle_26" data-name="Rectangle 26" width="1.384" height="1.384" transform="translate(0)" fill="#d0990f"/>
        </g>
      </g>
      <g id="Group_61" data-name="Group 61" transform="translate(48.424 24.727)">
        <g id="Group_60" data-name="Group 60" transform="translate(0 0)">
          <rect id="Rectangle_27" data-name="Rectangle 27" width="1.384" height="1.384" transform="translate(0)" fill="#d0990f"/>
        </g>
      </g>
      <g id="Group_63" data-name="Group 63" transform="translate(4.151 24.727)">
        <g id="Group_62" data-name="Group 62" transform="translate(0 0)">
          <rect id="Rectangle_28" data-name="Rectangle 28" width="1.384" height="1.384" fill="#d0990f"/>
        </g>
      </g>
      <g id="Group_65" data-name="Group 65" transform="translate(0 0)">
        <g id="Group_64" data-name="Group 64">
          <path id="Path_69" data-name="Path 69" d="M52.513,114.681a.89.89,0,0,0,.89-.89v-8.9a.89.89,0,0,0-.89-.89H.89a.89.89,0,0,0-.89.89v8.9a.89.89,0,0,0,.89.89,4.45,4.45,0,0,1,0,8.9.89.89,0,0,0-.89.89v8.9a.89.89,0,0,0,.89.89H52.513a.89.89,0,0,0,.89-.89v-8.9a.89.89,0,0,0-.89-.89,4.45,4.45,0,0,1,0-8.9Zm-6.172,5.335a6.23,6.23,0,0,0,5.282,5.282v7.184H1.78V125.3a6.23,6.23,0,0,0,0-12.334V105.78H51.623v7.184A6.23,6.23,0,0,0,46.341,120.016Z" transform="translate(0 -104)" fill="#d0990f"/>
        </g>
      </g>
      <g id="Group_67" data-name="Group 67" transform="translate(23.141 6.23)">
        <g id="Group_66" data-name="Group 66" transform="translate(0 0)">
          <path id="Path_70" data-name="Path 70" d="M211.56,160a3.56,3.56,0,1,0,3.56,3.56A3.56,3.56,0,0,0,211.56,160Zm0,5.34a1.78,1.78,0,1,1,1.78-1.78A1.78,1.78,0,0,1,211.56,165.34Z" transform="translate(-208 -160)" fill="#d0990f"/>
        </g>
      </g>
      <g id="Group_69" data-name="Group 69" transform="translate(33.822 16.911)">
        <g id="Group_68" data-name="Group 68" transform="translate(0 0)">
          <path id="Path_71" data-name="Path 71" d="M307.56,256a3.56,3.56,0,1,0,3.56,3.56A3.56,3.56,0,0,0,307.56,256Zm0,5.34a1.78,1.78,0,1,1,1.78-1.78A1.78,1.78,0,0,1,307.56,261.34Z" transform="translate(-304 -256)" fill="#d0990f"/>
        </g>
      </g>
      <g id="Group_71" data-name="Group 71" transform="translate(24.292 7.379)">
        <g id="Group_70" data-name="Group 70" transform="translate(0 0)">
          <rect id="Rectangle_29" data-name="Rectangle 29" width="20.139" height="1.78" transform="translate(0 14.24) rotate(-45)" fill="#d0990f"/>
        </g>
      </g>
    </g>
  </g>
</svg>
