<svg xmlns="http://www.w3.org/2000/svg" xmlns:xlink="http://www.w3.org/1999/xlink" width="104" height="103" viewBox="0 0 104 103">
  <defs>
    <filter id="Ellipse_76" x="0" y="0" width="104" height="103" filterUnits="userSpaceOnUse">
      <feOffset dy="3" input="SourceAlpha"/>
      <feGaussianBlur stdDeviation="3" result="blur"/>
      <feFlood flood-opacity="0.161"/>
      <feComposite operator="in" in2="blur"/>
      <feComposite in="SourceGraphic"/>
    </filter>
  </defs>
  <g id="Group_4836" data-name="Group 4836" transform="translate(-861 -538)">
    <g transform="matrix(1, 0, 0, 1, 861, 538)" filter="url(#Ellipse_76)">
      <ellipse id="Ellipse_76-2" data-name="Ellipse 76" cx="43" cy="42.5" rx="43" ry="42.5" transform="translate(9 6)" fill="#fff"/>
    </g>
    <g id="Group_5017" data-name="Group 5017">
      <path id="Path_151" data-name="Path 151" d="M298.434,321.962H251.728a1.86,1.86,0,0,0-1.858,1.858v31.2a1.86,1.86,0,0,0,1.858,1.858h46.706a1.86,1.86,0,0,0,1.858-1.858v-31.2A1.86,1.86,0,0,0,298.434,321.962Zm.265,33.053a.266.266,0,0,1-.265.265H251.728a.266.266,0,0,1-.265-.265v-3.879H298.7Zm0-5.684v.212H251.462V323.82a.266.266,0,0,1,.265-.265h46.706a.266.266,0,0,1,.265.265Z" transform="translate(638.273 243.608)" fill="#d0990f"/>
      <path id="Path_152" data-name="Path 152" d="M431.4,685.15h-2.648v-3.031a.8.8,0,0,0-1.592,0v3.031h-7.046v-3.031a.8.8,0,0,0-1.592,0v3.031h-2.648a.8.8,0,0,0,0,1.592H431.4a.8.8,0,1,0,0-1.592Z" transform="translate(489.719 -79.533)" fill="#d0990f"/>
      <path id="Path_153" data-name="Path 153" d="M490.181,623.406a1.1,1.1,0,1,0-1.1-1.1A1.1,1.1,0,0,0,490.181,623.406Z" transform="translate(423.174 -25.474)" fill="#d0990f"/>
    </g>
    <g id="Group_4625" data-name="Group 4625" transform="translate(904.267 570.357)">
      <path id="Path_185" data-name="Path 185" d="M468.186,449.992a5.012,5.012,0,0,0-6.117-.762,1.506,1.506,0,0,0-1.995,2.215,4.989,4.989,0,0,0,0,4.206c-.035.03-.07.06-.1.092a1.732,1.732,0,0,0-.506,1.278l-2.227,2.227-.05,0a1.724,1.724,0,0,0-1,.318,3.945,3.945,0,1,0,2.42,2.42,1.724,1.724,0,0,0,.318-1c0-.017,0-.033,0-.05l2.227-2.227.049,0a1.733,1.733,0,0,0,1.229-.508h0c.033-.033.063-.068.092-.1a4.989,4.989,0,0,0,4.206,0,1.506,1.506,0,0,0,2.215-1.995,5.012,5.012,0,0,0-.762-6.117Zm-12.4,14.175h0a1.254,1.254,0,1,1,0-1.775A1.256,1.256,0,0,1,455.786,464.167Zm1.277,1.277a3.061,3.061,0,1,1-2.165-5.226,3.094,3.094,0,0,1,.7.082,1.7,1.7,0,0,0-.121.931,2.128,2.128,0,1,0,.929,3.554h0a2.131,2.131,0,0,0,.543-2.083,1.768,1.768,0,0,0,.247.019,1.735,1.735,0,0,0,.684-.14,3.08,3.08,0,0,1,.083.7A3.041,3.041,0,0,1,457.063,465.444Zm.741-3.85h0a.883.883,0,0,1-1.22,0,.863.863,0,1,1,1.22,0Zm.822-1.594a1.7,1.7,0,0,0-.448-.448l1.686-1.686.448.448Zm2.429-2.18-.7-.7a.86.86,0,0,1,.176-.685,4.794,4.794,0,0,0,1.206,1.206A.86.86,0,0,1,461.055,457.821Zm3.58-.129a4.141,4.141,0,0,1-3.894-5.57l5.316,5.316A4.144,4.144,0,0,1,464.634,457.692Zm3.508-.3a.633.633,0,0,1-.893,0l-6.464-6.465a.631.631,0,0,1,.893-.893l6.465,6.465A.633.633,0,0,1,468.143,457.393Zm.179-1.951-5.586-5.586a4.147,4.147,0,0,1,5.586,5.586Z" transform="translate(-450.962 -448.521)" fill="#d0990f" stroke="#d0990f" stroke-width="0.2"/>
    </g>
  </g>
</svg>
