<svg xmlns="http://www.w3.org/2000/svg" xmlns:xlink="http://www.w3.org/1999/xlink" width="172" height="324" viewBox="0 0 172 324">
  <defs>
    <clipPath id="clip-path">
      <rect id="Rectangle_297" data-name="Rectangle 297" width="172" height="324" transform="translate(0 1840)" fill="#fff" stroke="#707070" stroke-width="1"/>
    </clipPath>
    <linearGradient id="linear-gradient" x1="0.5" y1="1" x2="0.5" gradientUnits="objectBoundingBox">
      <stop offset="0" stop-color="#e2ab44"/>
      <stop offset="1" stop-color="#fee185"/>
    </linearGradient>
  </defs>
  <g id="Mask_Group_14" data-name="Mask Group 14" transform="translate(0 -1840)" clip-path="url(#clip-path)">
    <g id="Group_4469" data-name="Group 4469" transform="translate(-172.174 1840.277)">
      <path id="Path_107" data-name="Path 107" d="M13.339,0,17.59,8.175l9.089,1.517-6.462,6.569,1.366,9.113-8.244-4.115L5.1,25.373l1.366-9.113L0,9.692,9.089,8.175Z" transform="matrix(0.914, -0.407, 0.407, 0.914, 309.654, 83.82)" fill="url(#linear-gradient)"/>
      <path id="Subtraction_11" data-name="Subtraction 11" d="M162,0a163.2,163.2,0,0,0-32.649,3.291A161.113,161.113,0,0,0,71.424,27.667,162.473,162.473,0,0,0,12.731,98.942a161.183,161.183,0,0,0-9.44,30.409,163.58,163.58,0,0,0,0,65.3,161.113,161.113,0,0,0,24.376,57.927,162.474,162.474,0,0,0,71.275,58.694,161.182,161.182,0,0,0,30.409,9.44,163.579,163.579,0,0,0,65.3,0,161.113,161.113,0,0,0,57.927-24.376,162.473,162.473,0,0,0,58.694-71.275,161.184,161.184,0,0,0,9.44-30.409,163.581,163.581,0,0,0,0-65.3,161.113,161.113,0,0,0-24.376-57.927,162.474,162.474,0,0,0-71.275-58.694,161.183,161.183,0,0,0-30.409-9.44A163.2,163.2,0,0,0,162,0Zm0,284.71A122.71,122.71,0,1,1,284.71,162,122.849,122.849,0,0,1,162,284.71Z" transform="translate(324 324) rotate(180)" opacity="0.2" fill="url(#linear-gradient)"/>
      <path id="Path_108" data-name="Path 108" d="M19.989,38.023l6.37-12.251L39.979,23.5,30.3,13.656,32.344,0,19.989,6.167,7.635,0,9.683,13.655,0,23.5l13.62,2.273Z" transform="matrix(0.914, 0.407, -0.407, 0.914, 235.745, 38.988)" fill="url(#linear-gradient)"/>
      <path id="Subtraction_9" data-name="Subtraction 9" d="M11,0A11.082,11.082,0,0,0,8.783.223,10.94,10.94,0,0,0,4.85,1.879,11.032,11.032,0,0,0,.864,6.718,10.944,10.944,0,0,0,.223,8.783a11.107,11.107,0,0,0,0,4.434A10.94,10.94,0,0,0,1.879,17.15a11.032,11.032,0,0,0,4.84,3.985,10.944,10.944,0,0,0,2.065.641,11.107,11.107,0,0,0,4.434,0,10.94,10.94,0,0,0,3.933-1.655,11.032,11.032,0,0,0,3.985-4.84,10.945,10.945,0,0,0,.641-2.065,11.107,11.107,0,0,0,0-4.434A10.94,10.94,0,0,0,20.121,4.85,11.032,11.032,0,0,0,15.282.864,10.945,10.945,0,0,0,13.217.223,11.082,11.082,0,0,0,11,0Zm0,19.332A8.332,8.332,0,1,1,19.332,11,8.342,8.342,0,0,1,11,19.332Z" transform="translate(292 282) rotate(180)" fill="#019cde"/>
    </g>
  </g>
</svg>
