<svg xmlns="http://www.w3.org/2000/svg" xmlns:xlink="http://www.w3.org/1999/xlink" width="103" height="103" viewBox="0 0 103 103">
  <defs>
    <filter id="Ellipse_77" x="0" y="0" width="103" height="103" filterUnits="userSpaceOnUse">
      <feOffset dy="3" input="SourceAlpha"/>
      <feGaussianBlur stdDeviation="3" result="blur"/>
      <feFlood flood-opacity="0.161"/>
      <feComposite operator="in" in2="blur"/>
      <feComposite in="SourceGraphic"/>
    </filter>
    <clipPath id="clip-path">
      <rect id="Rectangle_285" data-name="Rectangle 285" width="48.224" height="51.823" fill="none"/>
    </clipPath>
  </defs>
  <g id="Group_7898" data-name="Group 7898" transform="translate(-609.572 -515)">
    <g id="Group_4838" data-name="Group 4838" transform="translate(163.572 -23)">
      <g transform="matrix(1, 0, 0, 1, 446, 538)" filter="url(#Ellipse_77)">
        <circle id="Ellipse_77-2" data-name="Ellipse 77" cx="42.5" cy="42.5" r="42.5" transform="translate(9 6)" fill="#fff"/>
      </g>
    </g>
    <g id="Group_5014" data-name="Group 5014" transform="translate(636.572 538.999)">
      <g id="Group_5016" data-name="Group 5016" transform="translate(0 0.001)" clip-path="url(#clip-path)">
        <path id="Path_370" data-name="Path 370" d="M24.686,39.886a4.574,4.574,0,0,1-3.97-2.322,4.562,4.562,0,0,1-6.07-3.618,4.565,4.565,0,0,1-4.073-5.777,4.563,4.563,0,0,1-1.734-6.851,4.563,4.563,0,0,1,1.205-6.963,4.56,4.56,0,0,1,3.617-6.07,4.565,4.565,0,0,1,5.776-4.074,4.563,4.563,0,0,1,6.852-1.734,4.564,4.564,0,0,1,6.962,1.2A4.561,4.561,0,0,1,39.322,7.3,4.565,4.565,0,0,1,43.4,13.075a4.538,4.538,0,0,1,2.515,3.111h0a4.576,4.576,0,0,1-.785,3.739,4.563,4.563,0,0,1-1.2,6.964,4.563,4.563,0,0,1-3.618,6.07,4.565,4.565,0,0,1-5.777,4.073,4.562,4.562,0,0,1-6.85,1.734,4.578,4.578,0,0,1-2.994,1.118m-3.58-4.16a.786.786,0,0,1,.746.538,2.99,2.99,0,0,0,5.174.927.786.786,0,0,1,.584-.294.8.8,0,0,1,.6.249,2.988,2.988,0,0,0,5.086-1.32.785.785,0,0,1,1.114-.513,2.992,2.992,0,0,0,4.315-3,.784.784,0,0,1,.2-.621.753.753,0,0,1,.6-.251,2.988,2.988,0,0,0,2.663-4.53.786.786,0,0,1,.425-1.151,2.991,2.991,0,0,0,.927-5.174.786.786,0,0,1-.045-1.187,2.989,2.989,0,0,0-1.319-5.087.785.785,0,0,1-.512-1.114,2.992,2.992,0,0,0-3-4.315A.784.784,0,0,1,37.8,8.07a2.992,2.992,0,0,0-2.884-3.091,3.053,3.053,0,0,0-1.648.428.785.785,0,0,1-1.151-.425,2.991,2.991,0,0,0-5.174-.927.784.784,0,0,1-.584.293.793.793,0,0,1-.6-.249,2.989,2.989,0,0,0-5.087,1.32.786.786,0,0,1-1.114.513,2.992,2.992,0,0,0-4.315,3,.785.785,0,0,1-.807.872,2.988,2.988,0,0,0-3.091,2.885,2.985,2.985,0,0,0,.428,1.645.786.786,0,0,1-.425,1.151,2.991,2.991,0,0,0-.928,5.174.786.786,0,0,1,.045,1.187,2.99,2.99,0,0,0,1.321,5.087.785.785,0,0,1,.513,1.114,2.992,2.992,0,0,0,3,4.315.784.784,0,0,1,.871.807,2.99,2.99,0,0,0,2.885,3.091,3.006,3.006,0,0,0,1.646-.428.784.784,0,0,1,.405-.112m5.771-.653a14.47,14.47,0,1,1,3.259-.372,14.552,14.552,0,0,1-3.259.372m.029-27.289A12.857,12.857,0,1,0,39.434,17.76,12.853,12.853,0,0,0,26.906,7.783" transform="translate(-2.872 -0.507)" fill="#d0990f"/>
        <path id="Path_371" data-name="Path 371" d="M39.666,35.4H29.824a.785.785,0,0,1-.785-.785V31.346a.785.785,0,0,1,.785-.785H31.5V23.454l-1.341.63a.786.786,0,0,1-1.06-.41l-1.132-2.731a.786.786,0,0,1,.435-1.031,9.526,9.526,0,0,0,3.977-2.978.785.785,0,0,1,.619-.3h4.379a.785.785,0,0,1,.785.785V30.561h1.5a.785.785,0,0,1,.785.785v3.273a.785.785,0,0,1-.785.785m-9.057-1.57h8.272v-1.7h-1.5a.785.785,0,0,1-.785-.785V18.2H33.372a11.114,11.114,0,0,1-3.66,2.847l.523,1.263,1.716-.807a.786.786,0,0,1,1.119.711v9.128a.785.785,0,0,1-.785.785H30.609Z" transform="translate(-10.377 -6.186)" fill="#d0990f"/>
        <path id="Path_372" data-name="Path 372" d="M73.445,17.337q-.04,0-.079,0l-2.721-.274A.785.785,0,1,1,70.8,15.5l2.721.273a.785.785,0,0,1-.078,1.567" transform="translate(-26.006 -5.761)" fill="#d0990f"/>
        <path id="Path_373" data-name="Path 373" d="M62.722,4.207A.786.786,0,0,1,62,3.116L63.112.48a.785.785,0,0,1,1.447.611L63.446,3.727a.785.785,0,0,1-.724.48" transform="translate(-23.031 0)" fill="#d0990f"/>
        <path id="Path_374" data-name="Path 374" d="M69.285,8.28a.785.785,0,0,1-.5-1.393l3.424-2.8A.785.785,0,0,1,73.2,5.307L69.781,8.1a.781.781,0,0,1-.5.177" transform="translate(-25.471 -1.456)" fill="#d0990f"/>
        <path id="Path_375" data-name="Path 375" d="M.786,17.336A.785.785,0,0,1,.708,15.77L3.428,15.5a.785.785,0,1,1,.157,1.562l-2.721.274q-.04,0-.079,0" transform="translate(-0.001 -5.761)" fill="#d0990f"/>
        <path id="Path_376" data-name="Path 376" d="M12.459,4.208a.785.785,0,0,1-.724-.481L10.623,1.091A.785.785,0,1,1,12.07.481l1.112,2.636a.786.786,0,0,1-.723,1.09" transform="translate(-3.927 -0.001)" fill="#d0990f"/>
        <path id="Path_377" data-name="Path 377" d="M4.53,8.28a.78.78,0,0,1-.5-.177L.61,5.307A.785.785,0,0,1,1.6,4.09l3.424,2.8a.785.785,0,0,1-.5,1.393" transform="translate(-0.12 -1.456)" fill="#d0990f"/>
        <path id="Path_378" data-name="Path 378" d="M46.293,70.124h-.036a.786.786,0,0,1-.669-.439l-6.6-13.454a.785.785,0,1,1,1.411-.691l5.966,12.17,3.317-5.425a.781.781,0,0,1,.756-.371l6.321.7L50.75,50.348a.785.785,0,1,1,1.41-.691L58.8,63.205a.785.785,0,0,1-.791,1.126l-7.246-.8-3.8,6.219a.785.785,0,0,1-.67.376" transform="translate(-14.469 -18.302)" fill="#d0990f"/>
        <path id="Path_379" data-name="Path 379" d="M57.264,62.068a.785.785,0,0,1-.705-.44l-2.587-5.276a.785.785,0,0,1,1.41-.692l2.587,5.276a.786.786,0,0,1-.7,1.131" transform="translate(-20.039 -20.535)" fill="#d0990f"/>
        <path id="Path_380" data-name="Path 380" d="M49.2,65.913a.786.786,0,0,1-.706-.44l-2.66-5.426a.785.785,0,1,1,1.41-.692l2.661,5.426a.786.786,0,0,1-.7,1.131" transform="translate(-17.015 -21.908)" fill="#d0990f"/>
        <path id="Path_381" data-name="Path 381" d="M18.649,70.568a.787.787,0,0,1-.67-.376l-3.8-6.219-7.244.8a.785.785,0,0,1-.792-1.126l6.274-12.8a.785.785,0,0,1,1.41.691L8.182,63.057l6.32-.7a.782.782,0,0,1,.757.371l3.315,5.425,5.512-11.236a.785.785,0,0,1,1.41.692L19.354,70.129a.786.786,0,0,1-.668.438h-.036" transform="translate(-2.254 -18.746)" fill="#d0990f"/>
        <path id="Path_382" data-name="Path 382" d="M25.06,65.6a.786.786,0,0,1-.7-1.131l2.917-5.948a.786.786,0,0,1,1.411.692l-2.917,5.948a.786.786,0,0,1-.706.44" transform="translate(-9.027 -21.599)" fill="#d0990f"/>
        <path id="Path_383" data-name="Path 383" d="M17.042,62.042a.786.786,0,0,1-.7-1.131l2.609-5.322a.785.785,0,0,1,1.41.692L17.748,61.6a.786.786,0,0,1-.706.44" transform="translate(-6.045 -20.507)" fill="#d0990f"/>
      </g>
    </g>
  </g>
</svg>
