<svg xmlns="http://www.w3.org/2000/svg" width="23.465" height="45.711" viewBox="0 0 23.465 45.711">
  <path id="Path_129" data-name="Path 129" d="M1372.934,129.707v-1.883a2.894,2.894,0,0,0-2.837-2.847h-.144l-.035-.159a7.442,7.442,0,0,0-4.763-5.123l-.115-.047v-1.842a3.652,3.652,0,0,0-3.62-3.618h-.437a3.636,3.636,0,0,0-3.619,3.62v1.84l-.11.044a8.522,8.522,0,0,0-2.952,1.9,6.579,6.579,0,0,0-1.823,3.245l-.03.141h-.146a2.879,2.879,0,0,0-2.834,2.85v1.88a2.835,2.835,0,0,0,1.348,2.42l.162.1-.106.156a6.4,6.4,0,0,0-1.129,3.664v17.32a6.584,6.584,0,0,0,6.529,6.529l.607,0,0,0h9.261a6.555,6.555,0,0,0,6.519-6.527V136.048a6.409,6.409,0,0,0-1.129-3.662l-.107-.158.162-.1A2.833,2.833,0,0,0,1372.934,129.707Zm-9.67-8.456a6.062,6.062,0,0,1,4.491,3.476l.091.245h-13.277l.094-.243a4.677,4.677,0,0,1,1.091-1.666,7.123,7.123,0,0,1,3.408-1.809l.276-.059v-3.39a1.565,1.565,0,0,1,1.55-1.556h.434a1.576,1.576,0,0,1,1.557,1.555v3.382Zm-7.32,29.937v-2.063h-4.134v-3.388h4.134v-2.064h-4.134v-3.386h4.134v-2.064h-4.134v-2.179a4.434,4.434,0,0,1,1.307-3.151c.1-.106.214-.2.327-.295l.049-.041h15.418l.053.044a4.41,4.41,0,0,1,1.631,3.443v17.322a4.5,4.5,0,0,1-4.465,4.467h-9.851a4.53,4.53,0,0,1-4.466-4.468l0-2.177Zm14.146-20.694h-17.761a.8.8,0,0,1-.785-.789v-1.886a.775.775,0,0,1,.227-.548l0,0a.787.787,0,0,1,.557-.235h17.76a.8.8,0,0,1,.786.788v1.888A.8.8,0,0,1,1370.09,130.494Z" transform="translate(-1349.469 -114.188)" fill="#d0990f"/>
</svg>
