<svg id="Group_4549" data-name="Group 4549" xmlns="http://www.w3.org/2000/svg" width="24.805" height="45.214" viewBox="0 0 24.805 45.214">
  <g id="Group_4548" data-name="Group 4548" transform="translate(0 0)">
    <path id="Path_130" data-name="Path 130" d="M1312.961,76.984a.844.844,0,0,0,.846-.841V73.211a.846.846,0,1,0-1.692,0v2.926a.844.844,0,0,0,.84.847Z" transform="translate(-1300.563 -72.365)" fill="#d0990f"/>
    <path id="Path_131" data-name="Path 131" d="M1302.128,80.976a.846.846,0,0,0,1.2-1.2l-2.069-2.069a.846.846,0,0,0-1.2,1.2h0Z" transform="translate(-1296.244 -74.155)" fill="#d0990f"/>
    <path id="Path_132" data-name="Path 132" d="M1322.075,81.225a.846.846,0,0,0,.6-.248l2.069-2.069a.846.846,0,0,0-1.2-1.2l-2.069,2.069a.844.844,0,0,0,.6,1.445Z" transform="translate(-1303.762 -74.155)" fill="#d0990f"/>
    <path id="Path_133" data-name="Path 133" d="M1310.641,122.448c-2.83,0-5.134,2.005-5.134,4.47s2.3,4.471,5.134,4.47,5.134-2.005,5.134-4.47S1313.472,122.448,1310.641,122.448Zm0,7.2c-1.874,0-3.4-1.226-3.4-2.735s1.524-2.735,3.4-2.735,3.4,1.228,3.4,2.735S1312.515,129.653,1310.641,129.653Z" transform="translate(-1298.244 -89.948)" fill="#d0990f"/>
    <path id="Path_134" data-name="Path 134" d="M1306.4,92.8a.562.562,0,0,0,.559-.435,3.989,3.989,0,0,1,.309-.957,3.749,3.749,0,0,1,1.809-1.809,4,4,0,0,1,.952-.31.558.558,0,0,0,.433-.556V88.62a.523.523,0,0,0-.191-.409.557.557,0,0,0-.357-.129.6.6,0,0,0-.1.01,5.071,5.071,0,0,0-4.058,4.058.558.558,0,0,0,.12.461.526.526,0,0,0,.409.191Z" transform="translate(-1298.328 -77.883)" fill="#d0990f"/>
    <path id="Path_135" data-name="Path 135" d="M1318.938,102.858l-.246-.592a2.679,2.679,0,0,0-3.339-1.412,26.487,26.487,0,0,1-3.951,1.014V97.847a7.911,7.911,0,1,0-9.373,0v4.019a26.5,26.5,0,0,1-3.951-1.015,2.684,2.684,0,0,0-3.343,1.422l-.237.573a2.337,2.337,0,0,0,.032,1.89,2.857,2.857,0,0,0,1.7,1.517,32.059,32.059,0,0,0,4.156,1.112,7.869,7.869,0,0,0-2.748,5.9c0,4.546,4.073,8.245,9.079,8.245s9.08-3.7,9.08-8.245a7.869,7.869,0,0,0-2.749-5.9,32.045,32.045,0,0,0,4.155-1.112,2.855,2.855,0,0,0,1.7-1.517A2.336,2.336,0,0,0,1318.938,102.858Zm-18.4-11.38a6.178,6.178,0,1,1,9.526,5.187l-.4.256v5.189l-.045,0h-5.81l-.046-.005V96.92l-.4-.256a6.16,6.16,0,0,1-2.834-5.188Zm13.522,21.79c0,3.589-3.3,6.508-7.346,6.511s-7.344-2.92-7.346-6.511a6.379,6.379,0,0,1,3.449-5.509,32.458,32.458,0,0,0,7.791,0,6.378,6.378,0,0,1,3.451,5.506Zm3.256-9.234a1.121,1.121,0,0,1-.674.583h0a30.792,30.792,0,0,1-19.85,0,1.119,1.119,0,0,1-.675-.583.63.63,0,0,1-.018-.511l.238-.574a.908.908,0,0,1,.846-.509,1.06,1.06,0,0,1,.336.056,28.555,28.555,0,0,0,18.4,0,.951.951,0,0,1,1.179.445l.245.592a.623.623,0,0,1-.027.5Z" transform="translate(-1294.314 -76.295)" fill="#d0990f"/>
  </g>
</svg>
