<svg xmlns="http://www.w3.org/2000/svg" width="27.796" height="45.473" viewBox="0 0 27.796 45.473">
  <g id="Group_5034" data-name="Group 5034" transform="translate(1.007 1.07)">
    <path id="Path_89" data-name="Path 89" d="M598.843,1305.905a3.846,3.846,0,0,1-2-3.955c.283-1.692,1.671-2.972,3.092-3.934.457-.309,1-.642,1.57-1a7.447,7.447,0,0,0,3.218-4.129,3,3,0,0,0,.154-1.5" transform="translate(-593.216 -1276.401)" fill="none" stroke="#d0990f" stroke-linecap="round" stroke-linejoin="round" stroke-width="2"/>
    <path id="Path_90" data-name="Path 90" d="M590.522,1351.4a7.383,7.383,0,0,1-4.454-2.9,7.047,7.047,0,0,1-1.371-5.008c.29-2.522,2.54-5.167,4.2-7.086" transform="translate(-584.653 -1308.144)" fill="none" stroke="#d0990f" stroke-linecap="round" stroke-linejoin="round" stroke-width="2"/>
    <path id="Path_91" data-name="Path 91" d="M640.815,1346.024a13.276,13.276,0,0,1-1.761-2.985,11.441,11.441,0,0,1-.441-8.757,7.623,7.623,0,0,1,.328-.777l2.2-4.26" transform="translate(-622.231 -1303.096)" fill="none" stroke="#d0990f" stroke-linecap="round" stroke-linejoin="round" stroke-width="2"/>
    <path id="Path_92" data-name="Path 92" d="M610.733,1264.4a11.213,11.213,0,0,0-1.064,4.778q0,.325.016.651a3.688,3.688,0,0,0,.574,2.062c.3.392,1.161.786,2.808.6.646-.074,1.236-.137,1.866-.258" transform="translate(-602.293 -1257.373)" fill="none" stroke="#d0990f" stroke-linecap="round" stroke-miterlimit="10" stroke-width="2"/>
    <path id="Path_93" data-name="Path 93" d="M636.348,1321.9a22.8,22.8,0,0,0,5.269,2.848" transform="translate(-621.105 -1297.916)" fill="none" stroke="#d0990f" stroke-linecap="round" stroke-linejoin="round" stroke-width="2"/>
    <path id="Path_94" data-name="Path 94" d="M610.574,1307.245a4.522,4.522,0,0,0,4.741.97,9.3,9.3,0,0,0,3.014-2.4,1.728,1.728,0,0,1,2.356-.185l.02.016c5.728,4.6,6.35,5.237,7.628,7.009a1.5,1.5,0,0,1-.185,1.971,65.861,65.861,0,0,1-9.493,6.968" transform="translate(-602.931 -1286.18)" fill="none" stroke="#d0990f" stroke-linecap="round" stroke-linejoin="round" stroke-width="2"/>
    <path id="Path_95" data-name="Path 95" d="M616.916,1263.233c.377-6.121-2.933-9.845-7.287-11.733-1.151-.5-2.469-.92-2.8-2.347a2.474,2.474,0,0,1,.068-1.321,3.116,3.116,0,0,1,.7-1.176,3.393,3.393,0,0,1,4.081-.559,7.736,7.736,0,0,1,3.3,3.151" transform="translate(-600.251 -1244.158)" fill="none" stroke="#d0990f" stroke-linecap="round" stroke-linejoin="round" stroke-width="2"/>
    <path id="Path_96" data-name="Path 96" d="M630.184,1262.25s3.243-10.59.049-17.459a8.112,8.112,0,0,0-3.752-3.651q-.148-.075-.3-.141a5.518,5.518,0,0,0-5.609.8l-.437.346" transform="translate(-609.673 -1240.563)" fill="none" stroke="#d0990f" stroke-linecap="round" stroke-linejoin="round" stroke-width="2"/>
  </g>
</svg>
