<svg id="Group_4545" data-name="Group 4545" xmlns="http://www.w3.org/2000/svg" width="29.175" height="45.214" viewBox="0 0 29.175 45.214">
  <g id="Group_4544" data-name="Group 4544" transform="translate(0 0)">
    <path id="Path_125" data-name="Path 125" d="M1027.449,119.652h1.911a13.647,13.647,0,0,0,13.632-13.632V88.07a13.648,13.648,0,0,0-13.632-13.632h-1.911a13.648,13.648,0,0,0-13.632,13.632v17.95A13.647,13.647,0,0,0,1027.449,119.652Zm13.244-13.632a11.308,11.308,0,0,1-.5,3.334l-10.422-5.063,10.923-5.078Zm-13.244-29.282h1.911a11.343,11.343,0,0,1,11.325,11.045,3.319,3.319,0,0,0-2.744-1.453l-.124,0a9.647,9.647,0,0,0-18.823,0l-.124,0a3.32,3.32,0,0,0-2.747,1.457A11.344,11.344,0,0,1,1027.449,76.738Zm12.434,12.913a1.94,1.94,0,0,1-3.537,1.1,8.265,8.265,0,0,1-15.881,0,1.947,1.947,0,1,1-.318-2.554,8.262,8.262,0,0,1,16.518,0,1.932,1.932,0,0,1,3.218,1.451ZM1016.116,91.5a3.317,3.317,0,0,0,3.7,1.33,9.641,9.641,0,0,0,17.186,0,3.316,3.316,0,0,0,3.693-1.325v6.183l-12.523,5.822-12.053-5.855Zm0,7.687,11.928,5.794.041.088.071-.033,11.544,5.608a11.408,11.408,0,0,1-3.884,4.677l-19.7-9.566Zm18.278,16.977a11.263,11.263,0,0,1-5.034,1.183h-1.911a11.348,11.348,0,0,1-11.254-10.021Z" transform="translate(-1013.817 -74.438)" fill="#d0990f"/>
    <path id="Path_126" data-name="Path 126" d="M1039.792,107.236a3.269,3.269,0,0,0,3.094-3.42H1036.7A3.269,3.269,0,0,0,1039.792,107.236Zm0-2.424a1.35,1.35,0,0,1,1.278,1.412h-2.556A1.35,1.35,0,0,1,1039.792,104.811Z" transform="translate(-1025.203 -89.057)" fill="#d0990f"/>
    <path id="Path_127" data-name="Path 127" d="M1032.9,98.32a.937.937,0,1,0,.937.937A.937.937,0,0,0,1032.9,98.32Z" transform="translate(-1022.846 -86.322)" fill="#d0990f"/>
    <path id="Path_128" data-name="Path 128" d="M1050.961,98.32a.937.937,0,1,0,.937.937A.937.937,0,0,0,1050.961,98.32Z" transform="translate(-1031.835 -86.322)" fill="#d0990f"/>
  </g>
</svg>
