<svg xmlns="http://www.w3.org/2000/svg" xmlns:xlink="http://www.w3.org/1999/xlink" width="124.067" height="243.011" viewBox="0 0 124.067 243.011">
  <defs>
    <linearGradient id="linear-gradient" x1="0.5" x2="0.5" y2="1" gradientUnits="objectBoundingBox">
      <stop offset="0" stop-color="#e2ab44"/>
      <stop offset="1" stop-color="#fee185"/>
    </linearGradient>
  </defs>
  <g id="Group_4469" data-name="Group 4469" transform="translate(-1774 -1274.988)">
    <path id="Path_107" data-name="Path 107" d="M13.339,25.373,17.59,17.2l9.089-1.517L20.218,9.113,21.584,0,13.34,4.115,5.1,0,6.462,9.113,0,15.682,9.089,17.2Z" transform="matrix(-0.914, -0.407, 0.407, -0.914, 1798.373, 1343)" fill="url(#linear-gradient)"/>
    <path id="Path_108" data-name="Path 108" d="M19.989,0l6.37,12.251,13.62,2.273L30.3,24.367l2.047,13.655L19.989,31.855,7.635,38.023,9.683,24.367,0,14.523l13.62-2.273Z" transform="matrix(-0.914, 0.407, -0.407, -0.914, 1898.067, 1309.724)" fill="url(#linear-gradient)"/>
    <path id="Subtraction_9" data-name="Subtraction 9" d="M11,22a11.082,11.082,0,0,1-2.217-.223A10.94,10.94,0,0,1,4.85,20.121a11.032,11.032,0,0,1-3.985-4.84,10.944,10.944,0,0,1-.641-2.065,11.107,11.107,0,0,1,0-4.434A10.94,10.94,0,0,1,1.879,4.85,11.032,11.032,0,0,1,6.718.864,10.944,10.944,0,0,1,8.783.223a11.107,11.107,0,0,1,4.434,0A10.94,10.94,0,0,1,17.15,1.879a11.032,11.032,0,0,1,3.985,4.84,10.945,10.945,0,0,1,.641,2.065,11.107,11.107,0,0,1,0,4.434,10.94,10.94,0,0,1-1.655,3.933,11.032,11.032,0,0,1-4.84,3.985,10.945,10.945,0,0,1-2.065.641A11.082,11.082,0,0,1,11,22ZM11,2.668A8.332,8.332,0,1,0,19.332,11,8.342,8.342,0,0,0,11,2.668Z" transform="translate(1826.347 1496)" fill="#019cde"/>
  </g>
</svg>
